<ttFont>
<head>
    <!-- Most of this table will be recalculated by the compiler -->
    <tableVersion value="1.0"/>
    <fontRevision value="2.0"/>
    <checkSumAdjustment value="0xd405910"/>
    <magicNumber value="0x5f0f3cf5"/>
    <flags value="00000000 00000111"/>
    <unitsPerEm value="1000"/>
    <created value="Wed May 24 18:23:34 2017"/>
    <modified value="Thu Sep 26 20:07:30 2019"/>
    <xMin value="-379"/>
    <yMin value="-1518"/>
    <xMax value="5037"/>
    <yMax value="1981"/>
    <macStyle value="00000000 00000001"/>
    <lowestRecPPEM value="6"/>
    <fontDirectionHint value="2"/>
    <indexToLocFormat value="0"/>
    <glyphDataFormat value="0"/>
  </head>
    <TTGlyph name="glyph00002" xMin="91" yMin="101" xMax="236" yMax="958">
      <contour>
        <pt x="117" y="101" on="1"/>
        <pt x="91" y="107" on="1"/>
        <pt x="95" y="126" on="0"/>
        <pt x="109" y="233" on="0"/>
        <pt x="113" y="334" on="1"/>
        <pt x="126" y="621" on="1"/>
        <pt x="129" y="677" on="0"/>
        <pt x="138" y="759" on="0"/>
        <pt x="156" y="831" on="0"/>
        <pt x="187" y="908" on="0"/>
        <pt x="211" y="958" on="1"/>
        <pt x="236" y="950" on="1"/>
        <pt x="229" y="927" on="0"/>
        <pt x="213" y="826" on="0"/>
        <pt x="208" y="730" on="1"/>
        <pt x="192" y="433" on="1"/>
        <pt x="188" y="347" on="0"/>
        <pt x="149" y="175" on="0"/>
      </contour>
    </TTGlyph>
    <TTGlyph name="glyph00003" xMin="111" yMin="0" xMax="360" yMax="915">
      <contour>
        <pt x="267" y="0" on="1"/>
        <pt x="185" y="0" on="0"/>
        <pt x="111" y="111" on="0"/>
        <pt x="111" y="238" on="1"/>
        <pt x="111" y="262" on="0"/>
        <pt x="112" y="310" on="0"/>
        <pt x="115" y="371" on="0"/>
        <pt x="119" y="456" on="0"/>
        <pt x="122" y="517" on="1"/>
        <pt x="126" y="600" on="0"/>
        <pt x="140" y="735" on="0"/>
        <pt x="169" y="855" on="0"/>
        <pt x="196" y="915" on="1"/>
        <pt x="222" y="908" on="1"/>
        <pt x="217" y="885" on="0"/>
        <pt x="204" y="787" on="0"/>
        <pt x="192" y="658" on="0"/>
        <pt x="184" y="512" on="0"/>
        <pt x="184" y="441" on="1"/>
        <pt x="184" y="329" on="0"/>
        <pt x="248" y="228" on="0"/>
        <pt x="316" y="228" on="1"/>
        <pt x="340" y="228" on="0"/>
        <pt x="360" y="177" on="0"/>
        <pt x="360" y="131" on="1"/>
        <pt x="360" y="72" on="0"/>
        <pt x="314" y="0" on="0"/>
      </contour>
    </TTGlyph>
    <TTGlyph name="glyph00004" xMin="18" yMin="-371" xMax="1174" yMax="639">
      <contour>
        <pt x="280" y="-371" on="1"/>
        <pt x="160" y="-371" on="0"/>
        <pt x="18" y="-222" on="0"/>
        <pt x="18" y="-83" on="1"/>
        <pt x="18" y="20" on="0"/>
        <pt x="72" y="224" on="0"/>
        <pt x="122" y="321" on="1"/>
        <pt x="156" y="310" on="1"/>
        <pt x="127" y="240" on="0"/>
        <pt x="102" y="129" on="0"/>
        <pt x="102" y="75" on="1"/>
        <pt x="102" y="-1" on="0"/>
        <pt x="160" y="-94" on="0"/>
        <pt x="267" y="-136" on="0"/>
        <pt x="338" y="-136" on="1"/>
        <pt x="433" y="-136" on="0"/>
        <pt x="566" y="-70" on="0"/>
        <pt x="648" y="31" on="0"/>
        <pt x="667" y="85" on="1"/>
        <pt x="702" y="184" on="0"/>
        <pt x="707" y="303" on="1"/>
        <pt x="712" y="471" on="1"/>
        <pt x="737" y="477" on="1"/>
        <pt x="757" y="470" on="0"/>
        <pt x="785" y="464" on="0"/>
        <pt x="804" y="464" on="1"/>
        <pt x="854" y="464" on="0"/>
        <pt x="937" y="514" on="0"/>
        <pt x="965" y="555" on="1"/>
        <pt x="980" y="558" on="1"/>
        <pt x="1003" y="545" on="0"/>
        <pt x="1029" y="536" on="0"/>
        <pt x="1045" y="536" on="1"/>
        <pt x="1083" y="536" on="0"/>
        <pt x="1129" y="587" on="0"/>
        <pt x="1141" y="639" on="1"/>
        <pt x="1174" y="635" on="1"/>
        <pt x="1154" y="502" on="0"/>
        <pt x="1058" y="369" on="0"/>
        <pt x="988" y="369" on="1"/>
        <pt x="978" y="369" on="0"/>
        <pt x="949" y="373" on="0"/>
        <pt x="935" y="378" on="1"/>
        <pt x="901" y="332" on="0"/>
        <pt x="810" y="285" on="0"/>
        <pt x="761" y="283" on="1"/>
        <pt x="755" y="134" on="0"/>
        <pt x="703" y="-26" on="1"/>
        <pt x="670" y="-130" on="0"/>
        <pt x="552" y="-285" on="0"/>
        <pt x="387" y="-371" on="0"/>
      </contour>
    </TTGlyph>
    <TTGlyph name="glyph00005" xMin="18" yMin="-371" xMax="1222" yMax="623">
      <contour>
        <pt x="280" y="-371" on="1"/>
        <pt x="156" y="-371" on="0"/>
        <pt x="18" y="-217" on="0"/>
        <pt x="18" y="-83" on="1"/>
        <pt x="18" y="11" on="0"/>
        <pt x="67" y="215" on="0"/>
        <pt x="122" y="321" on="1"/>
        <pt x="156" y="310" on="1"/>
        <pt x="126" y="239" on="0"/>
        <pt x="102" y="122" on="0"/>
        <pt x="102" y="75" on="1"/>
        <pt x="102" y="-1" on="0"/>
        <pt x="160" y="-94" on="0"/>
        <pt x="267" y="-136" on="0"/>
        <pt x="338" y="-136" on="1"/>
        <pt x="434" y="-136" on="0"/>
        <pt x="566" y="-71" on="0"/>
        <pt x="648" y="30" on="0"/>
        <pt x="667" y="83" on="1"/>
        <pt x="682" y="124" on="0"/>
        <pt x="700" y="201" on="0"/>
        <pt x="710" y="289" on="0"/>
        <pt x="715" y="404" on="0"/>
        <pt x="716" y="482" on="1"/>
        <pt x="740" y="488" on="1"/>
        <pt x="757" y="480" on="0"/>
        <pt x="781" y="473" on="0"/>
        <pt x="805" y="473" on="1"/>
        <pt x="838" y="473" on="0"/>
        <pt x="902" y="504" on="0"/>
        <pt x="928" y="547" on="1"/>
        <pt x="951" y="552" on="1"/>
        <pt x="965" y="538" on="0"/>
        <pt x="991" y="529" on="0"/>
        <pt x="1014" y="529" on="1"/>
        <pt x="1041" y="529" on="0"/>
        <pt x="1077" y="559" on="0"/>
        <pt x="1099" y="603" on="0"/>
        <pt x="1103" y="623" on="1"/>
        <pt x="1137" y="623" on="1"/>
        <pt x="1137" y="616" on="1"/>
        <pt x="1152" y="609" on="0"/>
        <pt x="1175" y="606" on="0"/>
        <pt x="1193" y="606" on="1"/>
        <pt x="1204" y="606" on="0"/>
        <pt x="1222" y="570" on="0"/>
        <pt x="1222" y="523" on="1"/>
        <pt x="1222" y="464" on="0"/>
        <pt x="1188" y="416" on="0"/>
        <pt x="1159" y="416" on="1"/>
        <pt x="1122" y="416" on="0"/>
        <pt x="1093" y="431" on="1"/>
        <pt x="1069" y="393" on="0"/>
        <pt x="999" y="352" on="0"/>
        <pt x="963" y="352" on="1"/>
        <pt x="924" y="352" on="0"/>
        <pt x="895" y="370" on="1"/>
        <pt x="849" y="298" on="0"/>
        <pt x="763" y="289" on="1"/>
        <pt x="748" y="86" on="0"/>
        <pt x="633" y="-210" on="0"/>
        <pt x="429" y="-371" on="0"/>
      </contour>
    </TTGlyph>
    <TTGlyph name="glyph00006" xMin="18" yMin="-371" xMax="847" yMax="1126">
      <contour>
        <pt x="287" y="-371" on="1"/>
        <pt x="207" y="-371" on="0"/>
        <pt x="103" y="-322" on="0"/>
        <pt x="43" y="-242" on="0"/>
        <pt x="18" y="-143" on="0"/>
        <pt x="18" y="-94" on="1"/>
        <pt x="18" y="13" on="0"/>
        <pt x="80" y="225" on="0"/>
        <pt x="131" y="322" on="1"/>
        <pt x="164" y="310" on="1"/>
        <pt x="139" y="253" on="0"/>
        <pt x="106" y="132" on="0"/>
        <pt x="106" y="67" on="1"/>
        <pt x="106" y="-12" on="0"/>
        <pt x="169" y="-101" on="0"/>
        <pt x="275" y="-136" on="0"/>
        <pt x="337" y="-136" on="1"/>
        <pt x="428" y="-136" on="0"/>
        <pt x="559" y="-84" on="0"/>
        <pt x="643" y="-6" on="0"/>
        <pt x="665" y="32" on="1"/>
        <pt x="708" y="107" on="0"/>
        <pt x="716" y="295" on="1"/>
        <pt x="724" y="470" on="0"/>
        <pt x="733" y="687" on="0"/>
        <pt x="738" y="794" on="0"/>
        <pt x="739" y="803" on="1"/>
        <pt x="744" y="855" on="0"/>
        <pt x="753" y="929" on="0"/>
        <pt x="770" y="994" on="0"/>
        <pt x="798" y="1071" on="0"/>
        <pt x="820" y="1126" on="1"/>
        <pt x="847" y="1120" on="1"/>
        <pt x="839" y="1091" on="0"/>
        <pt x="820" y="920" on="0"/>
        <pt x="814" y="776" on="1"/>
        <pt x="811" y="713" on="0"/>
        <pt x="808" y="622" on="0"/>
        <pt x="805" y="549" on="0"/>
        <pt x="801" y="481" on="0"/>
        <pt x="798" y="440" on="1"/>
        <pt x="790" y="334" on="0"/>
        <pt x="771" y="185" on="0"/>
        <pt x="745" y="75" on="0"/>
        <pt x="710" y="-19" on="0"/>
        <pt x="687" y="-72" on="1"/>
        <pt x="648" y="-161" on="0"/>
        <pt x="532" y="-296" on="0"/>
        <pt x="380" y="-371" on="0"/>
      </contour>
    </TTGlyph>
    <TTGlyph name="glyph00007" xMin="18" yMin="-371" xMax="979" yMax="1126">
      <contour>
        <pt x="287" y="-371" on="1"/>
        <pt x="207" y="-371" on="0"/>
        <pt x="103" y="-322" on="0"/>
        <pt x="43" y="-242" on="0"/>
        <pt x="18" y="-143" on="0"/>
        <pt x="18" y="-94" on="1"/>
        <pt x="18" y="14" on="0"/>
        <pt x="79" y="225" on="0"/>
        <pt x="131" y="322" on="1"/>
        <pt x="164" y="310" on="1"/>
        <pt x="139" y="253" on="0"/>
        <pt x="106" y="132" on="0"/>
        <pt x="106" y="67" on="1"/>
        <pt x="106" y="-12" on="0"/>
        <pt x="169" y="-101" on="0"/>
        <pt x="275" y="-136" on="0"/>
        <pt x="337" y="-136" on="1"/>
        <pt x="428" y="-136" on="0"/>
        <pt x="559" y="-84" on="0"/>
        <pt x="643" y="-6" on="0"/>
        <pt x="665" y="32" on="1"/>
        <pt x="708" y="107" on="0"/>
        <pt x="716" y="295" on="1"/>
        <pt x="724" y="470" on="0"/>
        <pt x="733" y="687" on="0"/>
        <pt x="738" y="794" on="0"/>
        <pt x="739" y="803" on="1"/>
        <pt x="745" y="874" on="1"/>
        <pt x="748" y="909" on="0"/>
        <pt x="779" y="1025" on="0"/>
        <pt x="820" y="1126" on="1"/>
        <pt x="847" y="1120" on="1"/>
        <pt x="841" y="1091" on="0"/>
        <pt x="828" y="1001" on="0"/>
        <pt x="817" y="862" on="0"/>
        <pt x="813" y="757" on="1"/>
        <pt x="812" y="735" on="0"/>
        <pt x="809" y="693" on="0"/>
        <pt x="809" y="670" on="1"/>
        <pt x="809" y="595" on="0"/>
        <pt x="873" y="525" on="0"/>
        <pt x="935" y="525" on="1"/>
        <pt x="959" y="525" on="0"/>
        <pt x="979" y="474" on="0"/>
        <pt x="979" y="428" on="1"/>
        <pt x="979" y="370" on="0"/>
        <pt x="933" y="297" on="0"/>
        <pt x="886" y="297" on="1"/>
        <pt x="821" y="297" on="0"/>
        <pt x="791" y="350" on="1"/>
        <pt x="790" y="339" on="1"/>
        <pt x="777" y="194" on="0"/>
        <pt x="702" y="-63" on="0"/>
        <pt x="576" y="-260" on="0"/>
        <pt x="401" y="-371" on="0"/>
      </contour>
    </TTGlyph>
    <TTGlyph name="glyph00008" xMin="18" yMin="-668" xMax="686" yMax="661">
      <contour>
        <pt x="22" y="-668" on="1"/>
        <pt x="21" y="-636" on="0"/>
        <pt x="19" y="-582" on="0"/>
        <pt x="18" y="-523" on="0"/>
        <pt x="18" y="-444" on="0"/>
        <pt x="18" y="-389" on="1"/>
        <pt x="18" y="-55" on="0"/>
        <pt x="58" y="83" on="1"/>
        <pt x="81" y="163" on="0"/>
        <pt x="138" y="282" on="0"/>
        <pt x="213" y="373" on="0"/>
        <pt x="318" y="443" on="0"/>
        <pt x="389" y="473" on="1"/>
        <pt x="392" y="482" on="0"/>
        <pt x="410" y="521" on="0"/>
        <pt x="430" y="565" on="1"/>
        <pt x="456" y="621" on="0"/>
        <pt x="506" y="661" on="0"/>
        <pt x="527" y="661" on="1"/>
        <pt x="544" y="661" on="0"/>
        <pt x="596" y="651" on="0"/>
        <pt x="650" y="631" on="0"/>
        <pt x="686" y="601" on="0"/>
        <pt x="686" y="581" on="1"/>
        <pt x="686" y="535" on="0"/>
        <pt x="637" y="441" on="1"/>
        <pt x="588" y="347" on="0"/>
        <pt x="531" y="338" on="1"/>
        <pt x="502" y="334" on="0"/>
        <pt x="421" y="316" on="0"/>
        <pt x="368" y="302" on="1"/>
        <pt x="262" y="274" on="0"/>
        <pt x="132" y="164" on="0"/>
        <pt x="114" y="69" on="1"/>
        <pt x="105" y="21" on="0"/>
        <pt x="91" y="-92" on="0"/>
        <pt x="87" y="-157" on="1"/>
        <pt x="79" y="-308" on="0"/>
        <pt x="67" y="-513" on="0"/>
        <pt x="60" y="-637" on="0"/>
        <pt x="57" y="-668" on="1"/>
      </contour>
    </TTGlyph>
    <TTGlyph name="glyph00009" xMin="111" yMin="0" xMax="353" yMax="915">
      <contour>
        <pt x="260" y="0" on="1"/>
        <pt x="187" y="0" on="0"/>
        <pt x="111" y="120" on="0"/>
        <pt x="111" y="238" on="1"/>
        <pt x="111" y="291" on="0"/>
        <pt x="118" y="455" on="0"/>
        <pt x="125" y="565" on="1"/>
        <pt x="132" y="675" on="0"/>
        <pt x="167" y="850" on="0"/>
        <pt x="196" y="915" on="1"/>
        <pt x="222" y="908" on="1"/>
        <pt x="216" y="879" on="0"/>
        <pt x="205" y="790" on="0"/>
        <pt x="195" y="685" on="0"/>
        <pt x="188" y="577" on="0"/>
        <pt x="184" y="481" on="0"/>
        <pt x="184" y="446" on="1"/>
        <pt x="184" y="342" on="0"/>
        <pt x="211" y="285" on="1"/>
        <pt x="238" y="228" on="0"/>
        <pt x="309" y="228" on="1"/>
        <pt x="333" y="228" on="0"/>
        <pt x="353" y="176" on="0"/>
        <pt x="353" y="128" on="1"/>
        <pt x="353" y="58" on="0"/>
        <pt x="296" y="0" on="0"/>
      </contour>
    </TTGlyph>
    <TTGlyph name="glyph00010" xMin="-69" yMin="-12" xMax="685" yMax="304">
      <contour>
        <pt x="83" y="-12" on="1"/>
        <pt x="48" y="-12" on="0"/>
        <pt x="-23" y="-1" on="0"/>
        <pt x="-69" y="23" on="0"/>
        <pt x="-69" y="42" on="1"/>
        <pt x="-69" y="80" on="0"/>
        <pt x="-46" y="165" on="0"/>
        <pt x="-27" y="210" on="1"/>
        <pt x="-11" y="215" on="1"/>
        <pt x="1" y="205" on="0"/>
        <pt x="70" y="188" on="0"/>
        <pt x="154" y="178" on="0"/>
        <pt x="190" y="178" on="1"/>
        <pt x="248" y="178" on="0"/>
        <pt x="359" y="193" on="0"/>
        <pt x="414" y="207" on="1"/>
        <pt x="523" y="236" on="0"/>
        <pt x="565" y="259" on="1"/>
        <pt x="601" y="279" on="0"/>
        <pt x="635" y="298" on="0"/>
        <pt x="649" y="304" on="0"/>
        <pt x="656" y="304" on="1"/>
        <pt x="669" y="304" on="0"/>
        <pt x="685" y="290" on="0"/>
        <pt x="685" y="280" on="1"/>
        <pt x="685" y="272" on="0"/>
        <pt x="681" y="265" on="1"/>
        <pt x="676" y="256" on="0"/>
        <pt x="550" y="168" on="1"/>
        <pt x="434" y="88" on="0"/>
        <pt x="202" y="-12" on="0"/>
      </contour>
    </TTGlyph>
    <TTGlyph name="glyph00011" xMin="-69" yMin="-12" xMax="725" yMax="364">
      <contour>
        <pt x="103" y="-12" on="1"/>
        <pt x="13" y="-12" on="0"/>
        <pt x="-28" y="3" on="1"/>
        <pt x="-69" y="18" on="0"/>
        <pt x="-69" y="42" on="1"/>
        <pt x="-69" y="80" on="0"/>
        <pt x="-46" y="165" on="0"/>
        <pt x="-27" y="210" on="1"/>
        <pt x="-11" y="215" on="1"/>
        <pt x="0" y="206" on="0"/>
        <pt x="68" y="192" on="0"/>
        <pt x="152" y="184" on="0"/>
        <pt x="187" y="184" on="1"/>
        <pt x="268" y="184" on="0"/>
        <pt x="436" y="213" on="0"/>
        <pt x="581" y="269" on="0"/>
        <pt x="626" y="307" on="1"/>
        <pt x="672" y="347" on="0"/>
        <pt x="676" y="355" on="1"/>
        <pt x="681" y="364" on="0"/>
        <pt x="698" y="364" on="1"/>
        <pt x="725" y="364" on="0"/>
        <pt x="725" y="335" on="1"/>
        <pt x="725" y="302" on="0"/>
        <pt x="624" y="207" on="1"/>
        <pt x="557" y="145" on="0"/>
        <pt x="381" y="45" on="0"/>
        <pt x="192" y="-12" on="0"/>
      </contour>
    </TTGlyph>
    <TTGlyph name="glyph00012" xMin="-244" yMin="-59" xMax="135" yMax="923">
      <contour>
        <pt x="-120" y="-59" on="1"/>
        <pt x="-244" y="-6" on="1"/>
        <pt x="-239" y="13" on="1"/>
        <pt x="-145" y="20" on="0"/>
        <pt x="-85" y="57" on="1"/>
        <pt x="-45" y="81" on="0"/>
        <pt x="-6" y="124" on="0"/>
        <pt x="8" y="184" on="0"/>
        <pt x="10" y="235" on="1"/>
        <pt x="24" y="573" on="1"/>
        <pt x="26" y="631" on="0"/>
        <pt x="35" y="713" on="0"/>
        <pt x="52" y="785" on="0"/>
        <pt x="85" y="866" on="0"/>
        <pt x="111" y="923" on="1"/>
        <pt x="135" y="914" on="1"/>
        <pt x="112" y="847" on="0"/>
        <pt x="101" y="567" on="1"/>
        <pt x="91" y="290" on="0"/>
        <pt x="57" y="180" on="1"/>
        <pt x="41" y="125" on="0"/>
        <pt x="5" y="49" on="0"/>
        <pt x="-12" y="25" on="1"/>
        <pt x="-27" y="4" on="0"/>
        <pt x="-68" y="-34" on="0"/>
        <pt x="-106" y="-59" on="0"/>
      </contour>
    </TTGlyph>
    <TTGlyph name="glyph00013" xMin="-244" yMin="-57" xMax="266" yMax="923">
      <contour>
        <pt x="-122" y="-57" on="1"/>
        <pt x="-244" y="-6" on="1"/>
        <pt x="-239" y="13" on="1"/>
        <pt x="-174" y="18" on="0"/>
        <pt x="-71" y="60" on="0"/>
        <pt x="-44" y="85" on="1"/>
        <pt x="-21" y="107" on="0"/>
        <pt x="0" y="144" on="0"/>
        <pt x="8" y="198" on="0"/>
        <pt x="10" y="245" on="1"/>
        <pt x="27" y="591" on="1"/>
        <pt x="30" y="650" on="0"/>
        <pt x="38" y="735" on="0"/>
        <pt x="52" y="807" on="0"/>
        <pt x="76" y="878" on="0"/>
        <pt x="94" y="923" on="1"/>
        <pt x="119" y="915" on="1"/>
        <pt x="112" y="885" on="0"/>
        <pt x="101" y="790" on="0"/>
        <pt x="94" y="680" on="0"/>
        <pt x="90" y="574" on="0"/>
        <pt x="90" y="532" on="1"/>
        <pt x="90" y="450" on="0"/>
        <pt x="124" y="359" on="0"/>
        <pt x="184" y="324" on="0"/>
        <pt x="222" y="324" on="1"/>
        <pt x="246" y="324" on="0"/>
        <pt x="266" y="272" on="0"/>
        <pt x="266" y="226" on="1"/>
        <pt x="266" y="168" on="0"/>
        <pt x="219" y="96" on="0"/>
        <pt x="173" y="96" on="1"/>
        <pt x="83" y="96" on="0"/>
        <pt x="47" y="162" on="1"/>
        <pt x="28" y="90" on="0"/>
        <pt x="-26" y="2" on="0"/>
        <pt x="-54" y="-21" on="1"/>
        <pt x="-76" y="-39" on="0"/>
        <pt x="-105" y="-57" on="0"/>
      </contour>
    </TTGlyph>
    <TTGlyph name="glyph00014" xMin="-40" yMin="0" xMax="242" yMax="722">
      <contour>
        <pt x="0" y="0" on="1"/>
        <pt x="-15" y="0" on="0"/>
        <pt x="-40" y="37" on="0"/>
        <pt x="-40" y="80" on="1"/>
        <pt x="-40" y="122" on="0"/>
        <pt x="-17" y="170" on="0"/>
        <pt x="18" y="190" on="0"/>
        <pt x="34" y="190" on="1"/>
        <pt x="92" y="190" on="0"/>
        <pt x="119" y="220" on="1"/>
        <pt x="133" y="235" on="0"/>
        <pt x="145" y="307" on="0"/>
        <pt x="146" y="365" on="1"/>
        <pt x="148" y="448" on="1"/>
        <pt x="149" y="470" on="0"/>
        <pt x="153" y="526" on="0"/>
        <pt x="157" y="542" on="1"/>
        <pt x="165" y="577" on="0"/>
        <pt x="179" y="627" on="0"/>
        <pt x="200" y="682" on="0"/>
        <pt x="217" y="722" on="1"/>
        <pt x="242" y="715" on="1"/>
        <pt x="234" y="672" on="0"/>
        <pt x="221" y="536" on="0"/>
        <pt x="216" y="441" on="1"/>
        <pt x="207" y="251" on="0"/>
        <pt x="152" y="126" on="1"/>
        <pt x="97" y="0" on="0"/>
      </contour>
    </TTGlyph>
    <TTGlyph name="glyph00015" xMin="-40" yMin="0" xMax="406" yMax="721">
      <contour>
        <pt x="0" y="0" on="1"/>
        <pt x="-40" y="0" on="0"/>
        <pt x="-40" y="79" on="1"/>
        <pt x="-40" y="123" on="0"/>
        <pt x="-6" y="190" on="0"/>
        <pt x="34" y="190" on="1"/>
        <pt x="82" y="190" on="0"/>
        <pt x="114" y="225" on="1"/>
        <pt x="146" y="260" on="0"/>
        <pt x="155" y="364" on="1"/>
        <pt x="159" y="411" on="0"/>
        <pt x="164" y="466" on="0"/>
        <pt x="167" y="498" on="0"/>
        <pt x="168" y="509" on="1"/>
        <pt x="174" y="555" on="0"/>
        <pt x="188" y="625" on="0"/>
        <pt x="207" y="688" on="0"/>
        <pt x="220" y="721" on="1"/>
        <pt x="246" y="715" on="1"/>
        <pt x="239" y="681" on="0"/>
        <pt x="232" y="588" on="0"/>
        <pt x="232" y="547" on="1"/>
        <pt x="232" y="504" on="1"/>
        <pt x="232" y="444" on="0"/>
        <pt x="253" y="352" on="0"/>
        <pt x="309" y="301" on="0"/>
        <pt x="362" y="301" on="1"/>
        <pt x="388" y="301" on="0"/>
        <pt x="406" y="257" on="0"/>
        <pt x="406" y="214" on="1"/>
        <pt x="406" y="141" on="0"/>
        <pt x="349" y="73" on="0"/>
        <pt x="313" y="73" on="1"/>
        <pt x="259" y="73" on="0"/>
        <pt x="190" y="130" on="0"/>
        <pt x="173" y="196" on="1"/>
        <pt x="169" y="196" on="1"/>
        <pt x="150" y="109" on="0"/>
        <pt x="65" y="0" on="0"/>
      </contour>
    </TTGlyph>
    <TTGlyph name="glyph00016" xMin="91" yMin="4" xMax="236" yMax="861">
      <contour>
        <pt x="117" y="4" on="1"/>
        <pt x="91" y="10" on="1"/>
        <pt x="95" y="29" on="0"/>
        <pt x="109" y="136" on="0"/>
        <pt x="113" y="237" on="1"/>
        <pt x="126" y="524" on="1"/>
        <pt x="129" y="583" on="0"/>
        <pt x="138" y="666" on="0"/>
        <pt x="156" y="735" on="0"/>
        <pt x="187" y="810" on="0"/>
        <pt x="211" y="861" on="1"/>
        <pt x="236" y="853" on="1"/>
        <pt x="229" y="830" on="0"/>
        <pt x="213" y="729" on="0"/>
        <pt x="208" y="633" on="1"/>
        <pt x="192" y="336" on="1"/>
        <pt x="188" y="250" on="0"/>
        <pt x="149" y="78" on="0"/>
      </contour>
    </TTGlyph>
    <TTGlyph name="glyph00017" xMin="18" yMin="-684" xMax="686" yMax="645">
      <contour>
        <pt x="22" y="-684" on="1"/>
        <pt x="21" y="-652" on="0"/>
        <pt x="19" y="-598" on="0"/>
        <pt x="18" y="-539" on="0"/>
        <pt x="18" y="-460" on="0"/>
        <pt x="18" y="-405" on="1"/>
        <pt x="18" y="-71" on="0"/>
        <pt x="58" y="67" on="1"/>
        <pt x="99" y="208" on="0"/>
        <pt x="164" y="298" on="1"/>
        <pt x="230" y="390" on="0"/>
        <pt x="389" y="457" on="1"/>
        <pt x="394" y="471" on="0"/>
        <pt x="409" y="505" on="0"/>
        <pt x="422" y="534" on="1"/>
        <pt x="447" y="588" on="0"/>
        <pt x="490" y="645" on="0"/>
        <pt x="524" y="645" on="1"/>
        <pt x="541" y="645" on="0"/>
        <pt x="595" y="635" on="0"/>
        <pt x="649" y="616" on="0"/>
        <pt x="686" y="586" on="0"/>
        <pt x="686" y="565" on="1"/>
        <pt x="686" y="519" on="0"/>
        <pt x="637" y="425" on="1"/>
        <pt x="588" y="331" on="0"/>
        <pt x="531" y="322" on="1"/>
        <pt x="502" y="318" on="0"/>
        <pt x="421" y="300" on="0"/>
        <pt x="368" y="286" on="1"/>
        <pt x="262" y="258" on="0"/>
        <pt x="132" y="148" on="0"/>
        <pt x="114" y="53" on="1"/>
        <pt x="105" y="5" on="0"/>
        <pt x="91" y="-108" on="0"/>
        <pt x="87" y="-173" on="1"/>
        <pt x="64" y="-584" on="1"/>
        <pt x="63" y="-615" on="0"/>
        <pt x="59" y="-664" on="0"/>
        <pt x="57" y="-684" on="1"/>
      </contour>
    </TTGlyph>
    <TTGlyph name="glyph00018" xMin="-69" yMin="-12" xMax="694" yMax="369">
      <contour>
        <pt x="103" y="-12" on="1"/>
        <pt x="13" y="-12" on="0"/>
        <pt x="-28" y="3" on="1"/>
        <pt x="-69" y="18" on="0"/>
        <pt x="-69" y="42" on="1"/>
        <pt x="-69" y="80" on="0"/>
        <pt x="-46" y="165" on="0"/>
        <pt x="-27" y="210" on="1"/>
        <pt x="-11" y="215" on="1"/>
        <pt x="2" y="205" on="0"/>
        <pt x="96" y="184" on="0"/>
        <pt x="170" y="184" on="1"/>
        <pt x="333" y="184" on="0"/>
        <pt x="447" y="233" on="1"/>
        <pt x="562" y="282" on="0"/>
        <pt x="607" y="326" on="1"/>
        <pt x="650" y="369" on="0"/>
        <pt x="667" y="369" on="1"/>
        <pt x="694" y="369" on="0"/>
        <pt x="694" y="344" on="1"/>
        <pt x="694" y="311" on="0"/>
        <pt x="569" y="203" on="1"/>
        <pt x="499" y="142" on="0"/>
        <pt x="343" y="44" on="0"/>
        <pt x="182" y="-12" on="0"/>
      </contour>
    </TTGlyph>
    <TTGlyph name="glyph00019" xMin="-45" yMin="0" xMax="182" yMax="317">
      <contour>
        <pt x="0" y="0" on="1"/>
        <pt x="-21" y="0" on="0"/>
        <pt x="-45" y="48" on="0"/>
        <pt x="-45" y="101" on="1"/>
        <pt x="-45" y="157" on="0"/>
        <pt x="2" y="228" on="0"/>
        <pt x="49" y="228" on="1"/>
        <pt x="60" y="228" on="0"/>
        <pt x="66" y="231" on="1"/>
        <pt x="105" y="313" on="1"/>
        <pt x="112" y="317" on="0"/>
        <pt x="122" y="317" on="1"/>
        <pt x="144" y="317" on="0"/>
        <pt x="170" y="285" on="0"/>
        <pt x="182" y="236" on="0"/>
        <pt x="182" y="210" on="1"/>
        <pt x="182" y="155" on="0"/>
        <pt x="133" y="59" on="0"/>
        <pt x="51" y="0" on="0"/>
      </contour>
    </TTGlyph>
    <TTGlyph name="glyph00020" xMin="56" yMin="12" xMax="543" yMax="585">
      <contour>
        <pt x="72" y="12" on="1"/>
        <pt x="56" y="22" on="1"/>
        <pt x="74" y="76" on="0"/>
        <pt x="131" y="160" on="0"/>
        <pt x="169" y="191" on="1"/>
        <pt x="131" y="201" on="0"/>
        <pt x="87" y="241" on="0"/>
        <pt x="70" y="290" on="0"/>
        <pt x="70" y="313" on="1"/>
        <pt x="70" y="402" on="0"/>
        <pt x="171" y="494" on="1"/>
        <pt x="271" y="585" on="0"/>
        <pt x="356" y="585" on="1"/>
        <pt x="387" y="585" on="0"/>
        <pt x="439" y="554" on="0"/>
        <pt x="439" y="523" on="1"/>
        <pt x="439" y="499" on="0"/>
        <pt x="416" y="461" on="0"/>
        <pt x="392" y="452" on="1"/>
        <pt x="385" y="452" on="1"/>
        <pt x="375" y="465" on="0"/>
        <pt x="329" y="495" on="0"/>
        <pt x="299" y="495" on="1"/>
        <pt x="259" y="495" on="0"/>
        <pt x="204" y="454" on="0"/>
        <pt x="204" y="419" on="1"/>
        <pt x="204" y="387" on="0"/>
        <pt x="243" y="345" on="0"/>
        <pt x="299" y="325" on="0"/>
        <pt x="326" y="325" on="1"/>
        <pt x="346" y="325" on="0"/>
        <pt x="380" y="330" on="0"/>
        <pt x="402" y="346" on="1"/>
        <pt x="428" y="364" on="0"/>
        <pt x="456" y="384" on="0"/>
        <pt x="477" y="399" on="0"/>
        <pt x="504" y="419" on="0"/>
        <pt x="528" y="437" on="1"/>
        <pt x="543" y="426" on="1"/>
        <pt x="527" y="380" on="0"/>
        <pt x="484" y="319" on="0"/>
        <pt x="449" y="296" on="1"/>
        <pt x="245" y="156" on="1"/>
        <pt x="198" y="124" on="0"/>
        <pt x="111" y="54" on="0"/>
      </contour>
    </TTGlyph>
    <TTGlyph name="glyph00021" xMin="-15" yMin="-56" xMax="618" yMax="524">
      <contour>
        <pt x="0" y="-56" on="1"/>
        <pt x="-4" y="-56" on="0"/>
        <pt x="-15" y="-52" on="0"/>
        <pt x="-15" y="-43" on="1"/>
        <pt x="-15" y="-4" on="0"/>
        <pt x="63" y="87" on="1"/>
        <pt x="141" y="179" on="0"/>
        <pt x="348" y="264" on="1"/>
        <pt x="338" y="273" on="0"/>
        <pt x="318" y="300" on="0"/>
        <pt x="318" y="321" on="1"/>
        <pt x="318" y="343" on="0"/>
        <pt x="344" y="404" on="0"/>
        <pt x="382" y="466" on="0"/>
        <pt x="398" y="487" on="1"/>
        <pt x="428" y="524" on="0"/>
        <pt x="471" y="524" on="1"/>
        <pt x="486" y="524" on="0"/>
        <pt x="535" y="510" on="0"/>
        <pt x="584" y="483" on="0"/>
        <pt x="618" y="447" on="0"/>
        <pt x="618" y="425" on="1"/>
        <pt x="618" y="406" on="0"/>
        <pt x="590" y="338" on="0"/>
        <pt x="544" y="266" on="0"/>
        <pt x="516" y="241" on="1"/>
        <pt x="479" y="207" on="0"/>
        <pt x="421" y="195" on="1"/>
        <pt x="371" y="184" on="0"/>
        <pt x="259" y="148" on="0"/>
        <pt x="154" y="96" on="0"/>
        <pt x="71" y="28" on="0"/>
        <pt x="50" y="-15" on="1"/>
        <pt x="30" y="-56" on="0"/>
      </contour>
    </TTGlyph>
    <TTGlyph name="glyph00022" xMin="-74" yMin="-12" xMax="752" yMax="492">
      <contour>
        <pt x="74" y="-12" on="1"/>
        <pt x="12" y="-12" on="0"/>
        <pt x="-28" y="2" on="1"/>
        <pt x="-57" y="13" on="0"/>
        <pt x="-74" y="26" on="0"/>
        <pt x="-74" y="42" on="1"/>
        <pt x="-74" y="83" on="0"/>
        <pt x="-45" y="168" on="0"/>
        <pt x="-27" y="210" on="1"/>
        <pt x="-11" y="215" on="1"/>
        <pt x="-2" y="208" on="0"/>
        <pt x="49" y="195" on="0"/>
        <pt x="109" y="186" on="0"/>
        <pt x="131" y="186" on="1"/>
        <pt x="256" y="186" on="0"/>
        <pt x="514" y="288" on="0"/>
        <pt x="645" y="409" on="1"/>
        <pt x="690" y="450" on="0"/>
        <pt x="733" y="486" on="0"/>
        <pt x="749" y="492" on="1"/>
        <pt x="752" y="482" on="1"/>
        <pt x="745" y="456" on="0"/>
        <pt x="721" y="389" on="0"/>
        <pt x="698" y="332" on="0"/>
        <pt x="692" y="322" on="1"/>
        <pt x="640" y="315" on="0"/>
        <pt x="539" y="220" on="1"/>
        <pt x="488" y="173" on="0"/>
        <pt x="375" y="91" on="0"/>
        <pt x="313" y="57" on="1"/>
        <pt x="251" y="23" on="0"/>
        <pt x="132" y="-12" on="0"/>
      </contour>
    </TTGlyph>
    <TTGlyph name="glyph00023" xMin="-62" yMin="-100" xMax="331" yMax="455">
      <contour>
        <pt x="85" y="-100" on="1"/>
        <pt x="50" y="-100" on="0"/>
        <pt x="-18" y="-86" on="0"/>
        <pt x="-62" y="-54" on="0"/>
        <pt x="-62" y="-28" on="1"/>
        <pt x="-62" y="7" on="0"/>
        <pt x="-5" y="122" on="0"/>
        <pt x="72" y="189" on="1"/>
        <pt x="53" y="202" on="0"/>
        <pt x="31" y="233" on="0"/>
        <pt x="31" y="252" on="1"/>
        <pt x="31" y="274" on="0"/>
        <pt x="57" y="335" on="0"/>
        <pt x="95" y="397" on="0"/>
        <pt x="111" y="418" on="1"/>
        <pt x="141" y="455" on="0"/>
        <pt x="184" y="455" on="1"/>
        <pt x="199" y="455" on="0"/>
        <pt x="248" y="441" on="0"/>
        <pt x="297" y="414" on="0"/>
        <pt x="331" y="378" on="0"/>
        <pt x="331" y="356" on="1"/>
        <pt x="331" y="340" on="0"/>
        <pt x="312" y="282" on="0"/>
        <pt x="274" y="218" on="0"/>
        <pt x="220" y="165" on="0"/>
        <pt x="184" y="153" on="1"/>
        <pt x="110" y="128" on="1"/>
        <pt x="59" y="111" on="0"/>
        <pt x="20" y="67" on="0"/>
        <pt x="20" y="47" on="1"/>
        <pt x="20" y="17" on="0"/>
        <pt x="83" y="-9" on="1"/>
        <pt x="145" y="-35" on="0"/>
        <pt x="145" y="-75" on="1"/>
        <pt x="145" y="-88" on="0"/>
        <pt x="108" y="-100" on="0"/>
      </contour>
    </TTGlyph>
    <TTGlyph name="glyph00024" xMin="-45" yMin="0" xMax="650" yMax="502">
      <contour>
        <pt x="0" y="0" on="1"/>
        <pt x="-23" y="0" on="0"/>
        <pt x="-34" y="27" on="1"/>
        <pt x="-45" y="55" on="0"/>
        <pt x="-45" y="101" on="1"/>
        <pt x="-45" y="166" on="0"/>
        <pt x="7" y="228" on="0"/>
        <pt x="49" y="228" on="1"/>
        <pt x="105" y="228" on="0"/>
        <pt x="182" y="269" on="0"/>
        <pt x="210" y="320" on="1"/>
        <pt x="230" y="356" on="0"/>
        <pt x="257" y="356" on="1"/>
        <pt x="274" y="356" on="0"/>
        <pt x="299" y="344" on="1"/>
        <pt x="325" y="332" on="0"/>
        <pt x="351" y="332" on="1"/>
        <pt x="384" y="332" on="0"/>
        <pt x="427" y="371" on="0"/>
        <pt x="452" y="413" on="1"/>
        <pt x="467" y="416" on="1"/>
        <pt x="478" y="409" on="0"/>
        <pt x="505" y="395" on="0"/>
        <pt x="524" y="395" on="1"/>
        <pt x="552" y="395" on="0"/>
        <pt x="596" y="441" on="0"/>
        <pt x="615" y="502" on="1"/>
        <pt x="650" y="498" on="1"/>
        <pt x="626" y="356" on="0"/>
        <pt x="531" y="221" on="0"/>
        <pt x="468" y="221" on="1"/>
        <pt x="459" y="221" on="0"/>
        <pt x="428" y="226" on="0"/>
        <pt x="413" y="233" on="1"/>
        <pt x="392" y="197" on="0"/>
        <pt x="345" y="153" on="0"/>
        <pt x="310" y="153" on="1"/>
        <pt x="274" y="153" on="0"/>
        <pt x="242" y="176" on="1"/>
        <pt x="210" y="199" on="0"/>
        <pt x="199" y="199" on="1"/>
        <pt x="184" y="199" on="0"/>
        <pt x="161" y="142" on="1"/>
        <pt x="139" y="86" on="0"/>
        <pt x="102" y="43" on="1"/>
        <pt x="66" y="0" on="0"/>
      </contour>
    </TTGlyph>
    <TTGlyph name="glyph00025" xMin="-45" yMin="-3" xMax="1047" yMax="517">
      <contour>
        <pt x="66" y="-3" on="1"/>
        <pt x="11" y="-3" on="0"/>
        <pt x="-45" y="6" on="0"/>
        <pt x="-45" y="24" on="1"/>
        <pt x="-45" y="44" on="0"/>
        <pt x="-8" y="56" on="0"/>
        <pt x="34" y="56" on="1"/>
        <pt x="143" y="56" on="0"/>
        <pt x="336" y="105" on="0"/>
        <pt x="494" y="193" on="0"/>
        <pt x="548" y="249" on="1"/>
        <pt x="577" y="280" on="0"/>
        <pt x="619" y="326" on="0"/>
        <pt x="630" y="342" on="1"/>
        <pt x="652" y="373" on="0"/>
        <pt x="675" y="373" on="1"/>
        <pt x="694" y="373" on="0"/>
        <pt x="725" y="355" on="0"/>
        <pt x="751" y="355" on="1"/>
        <pt x="783" y="355" on="0"/>
        <pt x="831" y="390" on="0"/>
        <pt x="848" y="421" on="1"/>
        <pt x="862" y="424" on="1"/>
        <pt x="871" y="417" on="0"/>
        <pt x="903" y="410" on="0"/>
        <pt x="920" y="410" on="1"/>
        <pt x="953" y="410" on="0"/>
        <pt x="999" y="467" on="0"/>
        <pt x="1011" y="517" on="1"/>
        <pt x="1047" y="513" on="1"/>
        <pt x="1030" y="412" on="0"/>
        <pt x="983" y="290" on="0"/>
        <pt x="922" y="237" on="0"/>
        <pt x="884" y="237" on="1"/>
        <pt x="874" y="237" on="0"/>
        <pt x="846" y="242" on="0"/>
        <pt x="829" y="248" on="1"/>
        <pt x="801" y="197" on="0"/>
        <pt x="737" y="165" on="0"/>
        <pt x="714" y="165" on="1"/>
        <pt x="682" y="165" on="0"/>
        <pt x="647" y="186" on="0"/>
        <pt x="624" y="206" on="0"/>
        <pt x="610" y="206" on="1"/>
        <pt x="602" y="206" on="0"/>
        <pt x="525" y="148" on="1"/>
        <pt x="424" y="72" on="0"/>
        <pt x="189" y="-3" on="0"/>
      </contour>
    </TTGlyph>
    <TTGlyph name="glyph00026" xMin="-63" yMin="-100" xMax="608" yMax="391">
      <contour>
        <pt x="84" y="-100" on="1"/>
        <pt x="49" y="-100" on="0"/>
        <pt x="-19" y="-86" on="0"/>
        <pt x="-63" y="-54" on="0"/>
        <pt x="-63" y="-28" on="1"/>
        <pt x="-63" y="-9" on="0"/>
        <pt x="-49" y="37" on="0"/>
        <pt x="-40" y="57" on="1"/>
        <pt x="11" y="169" on="0"/>
        <pt x="120" y="283" on="0"/>
        <pt x="169" y="283" on="1"/>
        <pt x="195" y="283" on="0"/>
        <pt x="225" y="272" on="0"/>
        <pt x="248" y="258" on="0"/>
        <pt x="275" y="247" on="0"/>
        <pt x="297" y="247" on="1"/>
        <pt x="333" y="247" on="0"/>
        <pt x="386" y="290" on="0"/>
        <pt x="404" y="315" on="1"/>
        <pt x="419" y="316" on="1"/>
        <pt x="439" y="301" on="0"/>
        <pt x="466" y="290" on="0"/>
        <pt x="480" y="290" on="1"/>
        <pt x="512" y="290" on="0"/>
        <pt x="555" y="342" on="0"/>
        <pt x="573" y="391" on="1"/>
        <pt x="608" y="387" on="1"/>
        <pt x="575" y="242" on="0"/>
        <pt x="489" y="120" on="0"/>
        <pt x="435" y="120" on="1"/>
        <pt x="416" y="120" on="0"/>
        <pt x="380" y="133" on="0"/>
        <pt x="368" y="141" on="1"/>
        <pt x="340" y="98" on="0"/>
        <pt x="283" y="68" on="0"/>
        <pt x="253" y="68" on="1"/>
        <pt x="222" y="68" on="0"/>
        <pt x="184" y="87" on="0"/>
        <pt x="156" y="111" on="0"/>
        <pt x="125" y="130" on="0"/>
        <pt x="101" y="130" on="1"/>
        <pt x="66" y="130" on="0"/>
        <pt x="17" y="78" on="0"/>
        <pt x="17" y="44" on="1"/>
        <pt x="17" y="14" on="0"/>
        <pt x="81" y="-11" on="1"/>
        <pt x="144" y="-36" on="0"/>
        <pt x="144" y="-75" on="1"/>
        <pt x="144" y="-88" on="0"/>
        <pt x="107" y="-100" on="0"/>
      </contour>
    </TTGlyph>
    <TTGlyph name="glyph00027" xMin="-45" yMin="0" xMax="720" yMax="465">
      <contour>
        <pt x="0" y="0" on="1"/>
        <pt x="-19" y="0" on="0"/>
        <pt x="-45" y="46" on="0"/>
        <pt x="-45" y="101" on="1"/>
        <pt x="-45" y="166" on="0"/>
        <pt x="7" y="228" on="0"/>
        <pt x="49" y="228" on="1"/>
        <pt x="103" y="228" on="0"/>
        <pt x="177" y="260" on="0"/>
        <pt x="205" y="309" on="1"/>
        <pt x="228" y="348" on="0"/>
        <pt x="259" y="348" on="1"/>
        <pt x="278" y="348" on="0"/>
        <pt x="302" y="337" on="1"/>
        <pt x="326" y="326" on="0"/>
        <pt x="352" y="326" on="1"/>
        <pt x="387" y="326" on="0"/>
        <pt x="429" y="369" on="0"/>
        <pt x="449" y="406" on="1"/>
        <pt x="472" y="409" on="1"/>
        <pt x="490" y="380" on="0"/>
        <pt x="527" y="380" on="1"/>
        <pt x="561" y="380" on="0"/>
        <pt x="604" y="429" on="0"/>
        <pt x="609" y="463" on="1"/>
        <pt x="635" y="465" on="1"/>
        <pt x="639" y="458" on="0"/>
        <pt x="640" y="451" on="1"/>
        <pt x="654" y="440" on="0"/>
        <pt x="680" y="440" on="1"/>
        <pt x="702" y="440" on="0"/>
        <pt x="720" y="395" on="0"/>
        <pt x="720" y="360" on="1"/>
        <pt x="720" y="305" on="0"/>
        <pt x="677" y="250" on="0"/>
        <pt x="646" y="250" on="1"/>
        <pt x="632" y="250" on="0"/>
        <pt x="605" y="259" on="0"/>
        <pt x="588" y="269" on="1"/>
        <pt x="565" y="226" on="0"/>
        <pt x="510" y="198" on="0"/>
        <pt x="485" y="198" on="1"/>
        <pt x="454" y="198" on="0"/>
        <pt x="421" y="223" on="1"/>
        <pt x="396" y="180" on="0"/>
        <pt x="334" y="143" on="0"/>
        <pt x="306" y="143" on="1"/>
        <pt x="268" y="143" on="0"/>
        <pt x="239" y="165" on="1"/>
        <pt x="208" y="187" on="0"/>
        <pt x="197" y="187" on="1"/>
        <pt x="180" y="187" on="0"/>
        <pt x="133" y="94" on="1"/>
        <pt x="87" y="0" on="0"/>
      </contour>
    </TTGlyph>
    <TTGlyph name="glyph00028" xMin="-45" yMin="0" xMax="501" yMax="404">
      <contour>
        <pt x="0" y="0" on="1"/>
        <pt x="-19" y="0" on="0"/>
        <pt x="-45" y="46" on="0"/>
        <pt x="-45" y="101" on="1"/>
        <pt x="-45" y="166" on="0"/>
        <pt x="7" y="228" on="0"/>
        <pt x="49" y="228" on="1"/>
        <pt x="114" y="228" on="0"/>
        <pt x="199" y="274" on="0"/>
        <pt x="230" y="312" on="1"/>
        <pt x="271" y="363" on="0"/>
        <pt x="326" y="404" on="0"/>
        <pt x="357" y="404" on="1"/>
        <pt x="384" y="404" on="0"/>
        <pt x="451" y="384" on="0"/>
        <pt x="501" y="351" on="0"/>
        <pt x="501" y="329" on="1"/>
        <pt x="501" y="308" on="0"/>
        <pt x="481" y="258" on="0"/>
        <pt x="447" y="212" on="0"/>
        <pt x="405" y="183" on="0"/>
        <pt x="384" y="183" on="1"/>
        <pt x="360" y="183" on="0"/>
        <pt x="322" y="205" on="0"/>
        <pt x="283" y="226" on="0"/>
        <pt x="257" y="226" on="1"/>
        <pt x="240" y="226" on="0"/>
        <pt x="216" y="209" on="0"/>
        <pt x="185" y="162" on="0"/>
        <pt x="156" y="116" on="1"/>
        <pt x="118" y="55" on="0"/>
        <pt x="50" y="0" on="0"/>
      </contour>
    </TTGlyph>
    <TTGlyph name="glyph00029" xMin="-40" yMin="0" xMax="230" yMax="892">
      <contour>
        <pt x="0" y="0" on="1"/>
        <pt x="-15" y="0" on="0"/>
        <pt x="-40" y="37" on="0"/>
        <pt x="-40" y="80" on="1"/>
        <pt x="-40" y="122" on="0"/>
        <pt x="-17" y="170" on="0"/>
        <pt x="18" y="190" on="0"/>
        <pt x="34" y="190" on="1"/>
        <pt x="112" y="190" on="0"/>
        <pt x="122" y="286" on="1"/>
        <pt x="127" y="334" on="0"/>
        <pt x="131" y="459" on="0"/>
        <pt x="131" y="535" on="1"/>
        <pt x="131" y="583" on="0"/>
        <pt x="135" y="650" on="0"/>
        <pt x="145" y="710" on="0"/>
        <pt x="153" y="747" on="1"/>
        <pt x="160" y="778" on="0"/>
        <pt x="186" y="846" on="0"/>
        <pt x="205" y="892" on="1"/>
        <pt x="230" y="885" on="1"/>
        <pt x="223" y="848" on="0"/>
        <pt x="212" y="741" on="0"/>
        <pt x="207" y="667" on="1"/>
        <pt x="194" y="438" on="1"/>
        <pt x="185" y="273" on="0"/>
        <pt x="134" y="137" on="1"/>
        <pt x="83" y="0" on="0"/>
      </contour>
    </TTGlyph>
    <TTGlyph name="glyph00030" xMin="-45" yMin="0" xMax="285" yMax="980">
      <contour>
        <pt x="0" y="0" on="1"/>
        <pt x="-19" y="0" on="0"/>
        <pt x="-45" y="46" on="0"/>
        <pt x="-45" y="101" on="1"/>
        <pt x="-45" y="166" on="0"/>
        <pt x="7" y="228" on="0"/>
        <pt x="49" y="228" on="1"/>
        <pt x="94" y="228" on="0"/>
        <pt x="147" y="263" on="0"/>
        <pt x="172" y="317" on="0"/>
        <pt x="174" y="344" on="1"/>
        <pt x="174" y="347" on="0"/>
        <pt x="177" y="408" on="0"/>
        <pt x="181" y="500" on="0"/>
        <pt x="185" y="606" on="0"/>
        <pt x="186" y="654" on="1"/>
        <pt x="188" y="702" on="0"/>
        <pt x="195" y="778" on="0"/>
        <pt x="210" y="849" on="0"/>
        <pt x="238" y="928" on="0"/>
        <pt x="260" y="980" on="1"/>
        <pt x="285" y="973" on="1"/>
        <pt x="281" y="954" on="0"/>
        <pt x="275" y="907" on="0"/>
        <pt x="273" y="876" on="1"/>
        <pt x="245" y="473" on="1"/>
        <pt x="233" y="292" on="0"/>
        <pt x="173" y="146" on="1"/>
        <pt x="113" y="0" on="0"/>
      </contour>
    </TTGlyph>
    <TTGlyph name="glyph00031" xMin="-9" yMin="-38" xMax="166" yMax="746">
      <contour>
        <pt x="3" y="-38" on="1"/>
        <pt x="-9" y="-38" on="0"/>
        <pt x="-9" y="-27" on="1"/>
        <pt x="-9" y="-19" on="0"/>
        <pt x="20" y="44" on="1"/>
        <pt x="34" y="75" on="0"/>
        <pt x="47" y="147" on="0"/>
        <pt x="48" y="188" on="1"/>
        <pt x="60" y="467" on="1"/>
        <pt x="62" y="503" on="0"/>
        <pt x="71" y="563" on="0"/>
        <pt x="89" y="624" on="0"/>
        <pt x="119" y="697" on="0"/>
        <pt x="142" y="746" on="1"/>
        <pt x="166" y="737" on="1"/>
        <pt x="160" y="719" on="0"/>
        <pt x="150" y="658" on="0"/>
        <pt x="142" y="587" on="0"/>
        <pt x="137" y="517" on="0"/>
        <pt x="135" y="489" on="1"/>
        <pt x="126" y="325" on="1"/>
        <pt x="122" y="261" on="0"/>
        <pt x="107" y="151" on="0"/>
        <pt x="93" y="104" on="1"/>
        <pt x="66" y="10" on="0"/>
        <pt x="41" y="-14" on="1"/>
        <pt x="16" y="-38" on="0"/>
      </contour>
    </TTGlyph>
    <TTGlyph name="glyph00032" xMin="-40" yMin="0" xMax="259" yMax="892">
      <contour>
        <pt x="0" y="0" on="1"/>
        <pt x="-15" y="0" on="0"/>
        <pt x="-40" y="37" on="0"/>
        <pt x="-40" y="80" on="1"/>
        <pt x="-40" y="122" on="0"/>
        <pt x="-17" y="170" on="0"/>
        <pt x="18" y="190" on="0"/>
        <pt x="34" y="190" on="1"/>
        <pt x="71" y="190" on="0"/>
        <pt x="108" y="213" on="1"/>
        <pt x="146" y="237" on="0"/>
        <pt x="149" y="293" on="1"/>
        <pt x="152" y="358" on="0"/>
        <pt x="157" y="489" on="0"/>
        <pt x="159" y="553" on="1"/>
        <pt x="161" y="603" on="0"/>
        <pt x="166" y="662" on="0"/>
        <pt x="174" y="712" on="0"/>
        <pt x="182" y="747" on="1"/>
        <pt x="189" y="778" on="0"/>
        <pt x="215" y="846" on="0"/>
        <pt x="234" y="892" on="1"/>
        <pt x="259" y="885" on="1"/>
        <pt x="252" y="848" on="0"/>
        <pt x="241" y="741" on="0"/>
        <pt x="236" y="667" on="1"/>
        <pt x="223" y="445" on="1"/>
        <pt x="218" y="363" on="0"/>
        <pt x="185" y="205" on="0"/>
        <pt x="128" y="77" on="0"/>
        <pt x="50" y="0" on="0"/>
      </contour>
    </TTGlyph>
    <TTGlyph name="glyph00033" xMin="-45" yMin="-2" xMax="678" yMax="973">
      <contour>
        <pt x="41" y="-2" on="1"/>
        <pt x="-8" y="-2" on="0"/>
        <pt x="-45" y="15" on="0"/>
        <pt x="-45" y="26" on="1"/>
        <pt x="-45" y="46" on="0"/>
        <pt x="-7" y="53" on="0"/>
        <pt x="33" y="53" on="1"/>
        <pt x="78" y="53" on="0"/>
        <pt x="190" y="65" on="0"/>
        <pt x="311" y="96" on="0"/>
        <pt x="429" y="150" on="0"/>
        <pt x="479" y="192" on="1"/>
        <pt x="564" y="262" on="0"/>
        <pt x="569" y="410" on="1"/>
        <pt x="577" y="647" on="1"/>
        <pt x="579" y="711" on="0"/>
        <pt x="594" y="811" on="0"/>
        <pt x="626" y="910" on="0"/>
        <pt x="653" y="973" on="1"/>
        <pt x="678" y="966" on="1"/>
        <pt x="674" y="945" on="0"/>
        <pt x="668" y="900" on="0"/>
        <pt x="663" y="835" on="0"/>
        <pt x="660" y="783" on="1"/>
        <pt x="643" y="476" on="1"/>
        <pt x="639" y="397" on="0"/>
        <pt x="613" y="275" on="0"/>
        <pt x="560" y="181" on="0"/>
        <pt x="470" y="105" on="0"/>
        <pt x="401" y="73" on="1"/>
        <pt x="350" y="49" on="0"/>
        <pt x="223" y="16" on="0"/>
        <pt x="95" y="-2" on="0"/>
      </contour>
    </TTGlyph>
    <TTGlyph name="glyph00034" xMin="-64" yMin="-100" xMax="144" yMax="696">
      <contour>
        <pt x="84" y="-100" on="1"/>
        <pt x="17" y="-100" on="0"/>
        <pt x="-64" y="-69" on="0"/>
        <pt x="-64" y="-38" on="1"/>
        <pt x="-64" y="-14" on="0"/>
        <pt x="-39" y="37" on="1"/>
        <pt x="-27" y="63" on="0"/>
        <pt x="-14" y="144" on="0"/>
        <pt x="-11" y="199" on="1"/>
        <pt x="-2" y="360" on="1"/>
        <pt x="1" y="417" on="0"/>
        <pt x="11" y="498" on="0"/>
        <pt x="29" y="568" on="0"/>
        <pt x="60" y="644" on="0"/>
        <pt x="84" y="696" on="1"/>
        <pt x="108" y="687" on="1"/>
        <pt x="101" y="667" on="0"/>
        <pt x="90" y="592" on="0"/>
        <pt x="83" y="511" on="0"/>
        <pt x="81" y="480" on="1"/>
        <pt x="76" y="397" on="0"/>
        <pt x="65" y="272" on="0"/>
        <pt x="57" y="232" on="1"/>
        <pt x="41" y="155" on="0"/>
        <pt x="25" y="69" on="0"/>
        <pt x="25" y="54" on="1"/>
        <pt x="25" y="24" on="0"/>
        <pt x="48" y="13" on="1"/>
        <pt x="91" y="-6" on="0"/>
        <pt x="144" y="-44" on="0"/>
        <pt x="144" y="-75" on="1"/>
        <pt x="144" y="-88" on="0"/>
        <pt x="107" y="-100" on="0"/>
      </contour>
    </TTGlyph>
    <TTGlyph name="glyph00035" xMin="-45" yMin="0" xMax="280" yMax="871">
      <contour>
        <pt x="0" y="0" on="1"/>
        <pt x="-19" y="0" on="0"/>
        <pt x="-45" y="46" on="0"/>
        <pt x="-45" y="101" on="1"/>
        <pt x="-45" y="166" on="0"/>
        <pt x="7" y="228" on="0"/>
        <pt x="49" y="228" on="1"/>
        <pt x="92" y="228" on="0"/>
        <pt x="150" y="264" on="0"/>
        <pt x="163" y="295" on="1"/>
        <pt x="168" y="308" on="0"/>
        <pt x="175" y="354" on="0"/>
        <pt x="176" y="386" on="1"/>
        <pt x="180" y="516" on="1"/>
        <pt x="182" y="577" on="0"/>
        <pt x="190" y="667" on="0"/>
        <pt x="207" y="744" on="0"/>
        <pt x="234" y="823" on="0"/>
        <pt x="255" y="871" on="1"/>
        <pt x="280" y="864" on="1"/>
        <pt x="272" y="823" on="0"/>
        <pt x="267" y="770" on="1"/>
        <pt x="264" y="736" on="0"/>
        <pt x="260" y="677" on="0"/>
        <pt x="255" y="614" on="0"/>
        <pt x="250" y="532" on="0"/>
        <pt x="245" y="473" on="1"/>
        <pt x="229" y="262" on="0"/>
        <pt x="171" y="130" on="1"/>
        <pt x="115" y="0" on="0"/>
      </contour>
    </TTGlyph>
    <TTGlyph name="glyph00036" xMin="-45" yMin="0" xMax="429" yMax="970">
      <contour>
        <pt x="0" y="0" on="1"/>
        <pt x="-19" y="0" on="0"/>
        <pt x="-45" y="46" on="0"/>
        <pt x="-45" y="101" on="1"/>
        <pt x="-45" y="157" on="0"/>
        <pt x="2" y="228" on="0"/>
        <pt x="49" y="228" on="1"/>
        <pt x="104" y="228" on="0"/>
        <pt x="166" y="290" on="0"/>
        <pt x="173" y="336" on="1"/>
        <pt x="181" y="385" on="0"/>
        <pt x="181" y="485" on="0"/>
        <pt x="184" y="534" on="1"/>
        <pt x="187" y="590" on="0"/>
        <pt x="196" y="701" on="0"/>
        <pt x="203" y="772" on="1"/>
        <pt x="208" y="823" on="0"/>
        <pt x="233" y="917" on="0"/>
        <pt x="254" y="970" on="1"/>
        <pt x="280" y="964" on="1"/>
        <pt x="264" y="879" on="0"/>
        <pt x="254" y="660" on="0"/>
        <pt x="254" y="538" on="1"/>
        <pt x="254" y="478" on="0"/>
        <pt x="275" y="385" on="0"/>
        <pt x="332" y="333" on="0"/>
        <pt x="385" y="333" on="1"/>
        <pt x="411" y="333" on="0"/>
        <pt x="429" y="289" on="0"/>
        <pt x="429" y="246" on="1"/>
        <pt x="429" y="173" on="0"/>
        <pt x="372" y="105" on="0"/>
        <pt x="336" y="105" on="1"/>
        <pt x="279" y="105" on="0"/>
        <pt x="212" y="166" on="0"/>
        <pt x="197" y="225" on="1"/>
        <pt x="176" y="138" on="0"/>
        <pt x="113" y="40" on="0"/>
        <pt x="39" y="0" on="0"/>
      </contour>
    </TTGlyph>
    <TTGlyph name="glyph00037" xMin="-40" yMin="0" xMax="406" yMax="988">
      <contour>
        <pt x="0" y="0" on="1"/>
        <pt x="-40" y="0" on="0"/>
        <pt x="-40" y="79" on="1"/>
        <pt x="-40" y="123" on="0"/>
        <pt x="-6" y="190" on="0"/>
        <pt x="34" y="190" on="1"/>
        <pt x="82" y="190" on="0"/>
        <pt x="147" y="273" on="0"/>
        <pt x="151" y="333" on="1"/>
        <pt x="153" y="367" on="0"/>
        <pt x="157" y="418" on="0"/>
        <pt x="160" y="474" on="0"/>
        <pt x="165" y="556" on="0"/>
        <pt x="169" y="620" on="1"/>
        <pt x="183" y="852" on="0"/>
        <pt x="236" y="988" on="1"/>
        <pt x="262" y="982" on="1"/>
        <pt x="254" y="937" on="0"/>
        <pt x="242" y="817" on="0"/>
        <pt x="235" y="685" on="0"/>
        <pt x="231" y="558" on="0"/>
        <pt x="231" y="506" on="1"/>
        <pt x="231" y="446" on="0"/>
        <pt x="252" y="353" on="0"/>
        <pt x="309" y="301" on="0"/>
        <pt x="362" y="301" on="1"/>
        <pt x="388" y="301" on="0"/>
        <pt x="406" y="257" on="0"/>
        <pt x="406" y="214" on="1"/>
        <pt x="406" y="141" on="0"/>
        <pt x="349" y="73" on="0"/>
        <pt x="313" y="73" on="1"/>
        <pt x="256" y="73" on="0"/>
        <pt x="187" y="135" on="0"/>
        <pt x="171" y="205" on="1"/>
        <pt x="158" y="150" on="0"/>
        <pt x="111" y="56" on="0"/>
        <pt x="43" y="0" on="0"/>
      </contour>
    </TTGlyph>
    <TTGlyph name="glyph00038" xMin="-45" yMin="-87" xMax="817" yMax="915">
      <contour>
        <pt x="41" y="-87" on="1"/>
        <pt x="-8" y="-87" on="0"/>
        <pt x="-45" y="-70" on="0"/>
        <pt x="-45" y="-59" on="1"/>
        <pt x="-45" y="-39" on="0"/>
        <pt x="-7" y="-32" on="0"/>
        <pt x="33" y="-32" on="1"/>
        <pt x="148" y="-32" on="0"/>
        <pt x="372" y="28" on="0"/>
        <pt x="461" y="93" on="1"/>
        <pt x="560" y="165" on="0"/>
        <pt x="566" y="299" on="1"/>
        <pt x="571" y="403" on="0"/>
        <pt x="579" y="539" on="0"/>
        <pt x="586" y="626" on="0"/>
        <pt x="592" y="687" on="0"/>
        <pt x="595" y="716" on="1"/>
        <pt x="600" y="761" on="0"/>
        <pt x="624" y="860" on="0"/>
        <pt x="646" y="915" on="1"/>
        <pt x="672" y="909" on="1"/>
        <pt x="660" y="843" on="0"/>
        <pt x="642" y="598" on="0"/>
        <pt x="642" y="433" on="1"/>
        <pt x="642" y="373" on="0"/>
        <pt x="663" y="280" on="0"/>
        <pt x="720" y="228" on="0"/>
        <pt x="773" y="228" on="1"/>
        <pt x="799" y="228" on="0"/>
        <pt x="817" y="184" on="0"/>
        <pt x="817" y="141" on="1"/>
        <pt x="817" y="68" on="0"/>
        <pt x="760" y="0" on="0"/>
        <pt x="724" y="0" on="1"/>
        <pt x="668" y="0" on="0"/>
        <pt x="593" y="62" on="0"/>
        <pt x="578" y="129" on="1"/>
        <pt x="542" y="75" on="0"/>
        <pt x="421" y="-6" on="0"/>
        <pt x="272" y="-60" on="0"/>
        <pt x="114" y="-87" on="0"/>
      </contour>
    </TTGlyph>
    <TTGlyph name="glyph00039" xMin="-10" yMin="-50" xMax="531" yMax="875">
      <contour>
        <pt x="2" y="-50" on="1"/>
        <pt x="-10" y="-50" on="0"/>
        <pt x="-10" y="-33" on="1"/>
        <pt x="-10" y="-12" on="0"/>
        <pt x="23" y="36" on="0"/>
        <pt x="75" y="86" on="0"/>
        <pt x="134" y="128" on="0"/>
        <pt x="160" y="143" on="1"/>
        <pt x="215" y="174" on="0"/>
        <pt x="266" y="208" on="0"/>
        <pt x="274" y="227" on="1"/>
        <pt x="279" y="237" on="0"/>
        <pt x="280" y="258" on="0"/>
        <pt x="281" y="281" on="1"/>
        <pt x="281" y="297" on="0"/>
        <pt x="283" y="338" on="0"/>
        <pt x="288" y="409" on="0"/>
        <pt x="296" y="525" on="0"/>
        <pt x="303" y="615" on="1"/>
        <pt x="307" y="665" on="0"/>
        <pt x="319" y="747" on="0"/>
        <pt x="342" y="827" on="0"/>
        <pt x="360" y="875" on="1"/>
        <pt x="386" y="869" on="1"/>
        <pt x="374" y="803" on="0"/>
        <pt x="356" y="558" on="0"/>
        <pt x="356" y="393" on="1"/>
        <pt x="356" y="333" on="0"/>
        <pt x="377" y="240" on="0"/>
        <pt x="434" y="188" on="0"/>
        <pt x="487" y="188" on="1"/>
        <pt x="513" y="188" on="0"/>
        <pt x="531" y="144" on="0"/>
        <pt x="531" y="101" on="1"/>
        <pt x="531" y="28" on="0"/>
        <pt x="474" y="-40" on="0"/>
        <pt x="438" y="-40" on="1"/>
        <pt x="368" y="-40" on="0"/>
        <pt x="290" y="59" on="0"/>
        <pt x="283" y="153" on="1"/>
        <pt x="248" y="106" on="0"/>
        <pt x="153" y="60" on="1"/>
        <pt x="58" y="14" on="0"/>
        <pt x="41" y="-18" on="1"/>
        <pt x="24" y="-50" on="0"/>
      </contour>
    </TTGlyph>
    <TTGlyph name="glyph00040" xMin="-21" yMin="-100" xMax="354" yMax="975">
      <contour>
        <pt x="84" y="-100" on="1"/>
        <pt x="35" y="-100" on="0"/>
        <pt x="-21" y="-60" on="0"/>
        <pt x="-21" y="-23" on="1"/>
        <pt x="-21" y="15" on="0"/>
        <pt x="28" y="92" on="1"/>
        <pt x="53" y="130" on="0"/>
        <pt x="82" y="195" on="0"/>
        <pt x="87" y="220" on="1"/>
        <pt x="92" y="245" on="0"/>
        <pt x="101" y="324" on="0"/>
        <pt x="104" y="378" on="1"/>
        <pt x="110" y="471" on="0"/>
        <pt x="117" y="592" on="0"/>
        <pt x="123" y="676" on="0"/>
        <pt x="126" y="715" on="1"/>
        <pt x="131" y="765" on="0"/>
        <pt x="143" y="846" on="0"/>
        <pt x="165" y="927" on="0"/>
        <pt x="183" y="975" on="1"/>
        <pt x="209" y="969" on="1"/>
        <pt x="197" y="903" on="0"/>
        <pt x="179" y="658" on="0"/>
        <pt x="179" y="493" on="1"/>
        <pt x="179" y="433" on="0"/>
        <pt x="200" y="340" on="0"/>
        <pt x="257" y="288" on="0"/>
        <pt x="310" y="288" on="1"/>
        <pt x="336" y="288" on="0"/>
        <pt x="354" y="244" on="0"/>
        <pt x="354" y="201" on="1"/>
        <pt x="354" y="128" on="0"/>
        <pt x="297" y="60" on="0"/>
        <pt x="261" y="60" on="1"/>
        <pt x="208" y="60" on="0"/>
        <pt x="140" y="113" on="0"/>
        <pt x="123" y="164" on="1"/>
        <pt x="115" y="141" on="0"/>
        <pt x="87" y="95" on="0"/>
        <pt x="66" y="53" on="0"/>
        <pt x="66" y="35" on="1"/>
        <pt x="66" y="9" on="0"/>
        <pt x="105" y="-17" on="1"/>
        <pt x="144" y="-42" on="0"/>
        <pt x="144" y="-75" on="1"/>
        <pt x="144" y="-88" on="0"/>
        <pt x="107" y="-100" on="0"/>
      </contour>
    </TTGlyph>
    <TTGlyph name="glyph00041" xMin="-45" yMin="0" xMax="429" yMax="872">
      <contour>
        <pt x="0" y="0" on="1"/>
        <pt x="-19" y="0" on="0"/>
        <pt x="-45" y="46" on="0"/>
        <pt x="-45" y="101" on="1"/>
        <pt x="-45" y="157" on="0"/>
        <pt x="2" y="228" on="0"/>
        <pt x="49" y="228" on="1"/>
        <pt x="104" y="228" on="0"/>
        <pt x="169" y="290" on="0"/>
        <pt x="174" y="339" on="1"/>
        <pt x="180" y="398" on="0"/>
        <pt x="189" y="513" on="0"/>
        <pt x="193" y="571" on="1"/>
        <pt x="199" y="651" on="0"/>
        <pt x="223" y="799" on="0"/>
        <pt x="251" y="872" on="1"/>
        <pt x="277" y="867" on="1"/>
        <pt x="271" y="833" on="0"/>
        <pt x="262" y="742" on="0"/>
        <pt x="257" y="645" on="0"/>
        <pt x="254" y="557" on="0"/>
        <pt x="254" y="525" on="1"/>
        <pt x="254" y="473" on="0"/>
        <pt x="276" y="386" on="0"/>
        <pt x="333" y="333" on="0"/>
        <pt x="385" y="333" on="1"/>
        <pt x="411" y="333" on="0"/>
        <pt x="429" y="289" on="0"/>
        <pt x="429" y="246" on="1"/>
        <pt x="429" y="173" on="0"/>
        <pt x="372" y="105" on="0"/>
        <pt x="336" y="105" on="1"/>
        <pt x="279" y="105" on="0"/>
        <pt x="212" y="166" on="0"/>
        <pt x="197" y="225" on="1"/>
        <pt x="176" y="138" on="0"/>
        <pt x="113" y="40" on="0"/>
        <pt x="39" y="0" on="0"/>
      </contour>
    </TTGlyph>
    <TTGlyph name="glyph00042" xMin="-40" yMin="0" xMax="655" yMax="517">
      <contour>
        <pt x="0" y="0" on="1"/>
        <pt x="-21" y="0" on="0"/>
        <pt x="-40" y="49" on="0"/>
        <pt x="-40" y="80" on="1"/>
        <pt x="-40" y="136" on="0"/>
        <pt x="4" y="190" on="0"/>
        <pt x="34" y="190" on="1"/>
        <pt x="142" y="190" on="0"/>
        <pt x="212" y="300" on="1"/>
        <pt x="233" y="333" on="0"/>
        <pt x="254" y="364" on="0"/>
        <pt x="271" y="373" on="0"/>
        <pt x="283" y="373" on="1"/>
        <pt x="298" y="373" on="0"/>
        <pt x="317" y="364" on="1"/>
        <pt x="337" y="355" on="0"/>
        <pt x="359" y="355" on="1"/>
        <pt x="391" y="355" on="0"/>
        <pt x="439" y="390" on="0"/>
        <pt x="456" y="421" on="1"/>
        <pt x="470" y="424" on="1"/>
        <pt x="479" y="417" on="0"/>
        <pt x="511" y="410" on="0"/>
        <pt x="528" y="410" on="1"/>
        <pt x="561" y="410" on="0"/>
        <pt x="607" y="467" on="0"/>
        <pt x="619" y="517" on="1"/>
        <pt x="655" y="513" on="1"/>
        <pt x="638" y="412" on="0"/>
        <pt x="591" y="290" on="0"/>
        <pt x="530" y="237" on="0"/>
        <pt x="492" y="237" on="1"/>
        <pt x="482" y="237" on="0"/>
        <pt x="454" y="242" on="0"/>
        <pt x="437" y="248" on="1"/>
        <pt x="409" y="197" on="0"/>
        <pt x="345" y="165" on="0"/>
        <pt x="322" y="165" on="1"/>
        <pt x="289" y="165" on="0"/>
        <pt x="262" y="184" on="1"/>
        <pt x="237" y="202" on="0"/>
        <pt x="225" y="202" on="1"/>
        <pt x="211" y="202" on="0"/>
        <pt x="182" y="149" on="1"/>
        <pt x="147" y="84" on="0"/>
        <pt x="62" y="0" on="0"/>
      </contour>
    </TTGlyph>
    <TTGlyph name="glyph00043" xMin="-40" yMin="0" xMax="505" yMax="502">
      <contour>
        <pt x="0" y="0" on="1"/>
        <pt x="-24" y="0" on="0"/>
        <pt x="-40" y="51" on="0"/>
        <pt x="-40" y="80" on="1"/>
        <pt x="-40" y="136" on="0"/>
        <pt x="4" y="190" on="0"/>
        <pt x="34" y="190" on="1"/>
        <pt x="83" y="190" on="0"/>
        <pt x="142" y="209" on="0"/>
        <pt x="192" y="261" on="0"/>
        <pt x="225" y="310" on="1"/>
        <pt x="275" y="385" on="0"/>
        <pt x="326" y="395" on="1"/>
        <pt x="337" y="418" on="0"/>
        <pt x="384" y="480" on="0"/>
        <pt x="406" y="502" on="1"/>
        <pt x="423" y="502" on="1"/>
        <pt x="441" y="449" on="0"/>
        <pt x="473" y="408" on="1"/>
        <pt x="505" y="367" on="0"/>
        <pt x="505" y="337" on="1"/>
        <pt x="505" y="316" on="0"/>
        <pt x="482" y="263" on="0"/>
        <pt x="444" y="214" on="0"/>
        <pt x="398" y="182" on="0"/>
        <pt x="376" y="182" on="1"/>
        <pt x="352" y="182" on="0"/>
        <pt x="316" y="201" on="1"/>
        <pt x="282" y="219" on="0"/>
        <pt x="258" y="219" on="1"/>
        <pt x="206" y="219" on="0"/>
        <pt x="149" y="110" on="1"/>
        <pt x="92" y="0" on="0"/>
      </contour>
    </TTGlyph>
    <TTGlyph name="glyph00044" xMin="-5" yMin="-37" xMax="871" yMax="436">
      <contour>
        <pt x="17" y="-37" on="1"/>
        <pt x="-5" y="-37" on="0"/>
        <pt x="-5" y="-18" on="1"/>
        <pt x="-5" y="2" on="0"/>
        <pt x="62" y="107" on="1"/>
        <pt x="128" y="210" on="0"/>
        <pt x="211" y="272" on="1"/>
        <pt x="293" y="333" on="0"/>
        <pt x="375" y="333" on="1"/>
        <pt x="416" y="333" on="0"/>
        <pt x="443" y="315" on="1"/>
        <pt x="470" y="297" on="0"/>
        <pt x="503" y="297" on="1"/>
        <pt x="536" y="297" on="0"/>
        <pt x="581" y="340" on="0"/>
        <pt x="600" y="377" on="1"/>
        <pt x="623" y="380" on="1"/>
        <pt x="634" y="365" on="0"/>
        <pt x="659" y="351" on="0"/>
        <pt x="678" y="351" on="1"/>
        <pt x="712" y="351" on="0"/>
        <pt x="755" y="400" on="0"/>
        <pt x="760" y="434" on="1"/>
        <pt x="786" y="436" on="1"/>
        <pt x="790" y="429" on="0"/>
        <pt x="791" y="422" on="1"/>
        <pt x="805" y="411" on="0"/>
        <pt x="831" y="411" on="1"/>
        <pt x="853" y="411" on="0"/>
        <pt x="871" y="366" on="0"/>
        <pt x="871" y="331" on="1"/>
        <pt x="871" y="276" on="0"/>
        <pt x="828" y="221" on="0"/>
        <pt x="797" y="221" on="1"/>
        <pt x="783" y="221" on="0"/>
        <pt x="756" y="230" on="0"/>
        <pt x="739" y="240" on="1"/>
        <pt x="715" y="197" on="0"/>
        <pt x="659" y="169" on="0"/>
        <pt x="636" y="169" on="1"/>
        <pt x="605" y="169" on="0"/>
        <pt x="572" y="194" on="1"/>
        <pt x="549" y="153" on="0"/>
        <pt x="492" y="118" on="0"/>
        <pt x="459" y="118" on="1"/>
        <pt x="412" y="118" on="0"/>
        <pt x="375" y="150" on="1"/>
        <pt x="340" y="181" on="0"/>
        <pt x="302" y="181" on="1"/>
        <pt x="245" y="181" on="0"/>
        <pt x="138" y="119" on="0"/>
        <pt x="102" y="72" on="1"/>
        <pt x="63" y="21" on="0"/>
        <pt x="52" y="-8" on="1"/>
        <pt x="41" y="-37" on="0"/>
      </contour>
    </TTGlyph>
    <TTGlyph name="glyph00045" xMin="-45" yMin="-2" xMax="927" yMax="584">
      <contour>
        <pt x="36" y="-2" on="1"/>
        <pt x="-13" y="-2" on="0"/>
        <pt x="-45" y="15" on="0"/>
        <pt x="-45" y="25" on="1"/>
        <pt x="-45" y="40" on="0"/>
        <pt x="-21" y="57" on="0"/>
        <pt x="14" y="57" on="1"/>
        <pt x="132" y="57" on="0"/>
        <pt x="324" y="109" on="0"/>
        <pt x="398" y="159" on="1"/>
        <pt x="546" y="259" on="0"/>
        <pt x="615" y="360" on="1"/>
        <pt x="682" y="458" on="0"/>
        <pt x="746" y="478" on="1"/>
        <pt x="759" y="504" on="0"/>
        <pt x="805" y="561" on="0"/>
        <pt x="828" y="584" on="1"/>
        <pt x="845" y="584" on="1"/>
        <pt x="856" y="554" on="0"/>
        <pt x="882" y="507" on="0"/>
        <pt x="897" y="488" on="1"/>
        <pt x="927" y="451" on="0"/>
        <pt x="927" y="419" on="1"/>
        <pt x="927" y="400" on="0"/>
        <pt x="907" y="349" on="0"/>
        <pt x="871" y="301" on="0"/>
        <pt x="826" y="269" on="0"/>
        <pt x="802" y="269" on="1"/>
        <pt x="779" y="269" on="0"/>
        <pt x="751" y="285" on="1"/>
        <pt x="722" y="301" on="0"/>
        <pt x="689" y="301" on="1"/>
        <pt x="648" y="301" on="0"/>
        <pt x="582" y="233" on="1"/>
        <pt x="516" y="165" on="0"/>
        <pt x="436" y="111" on="1"/>
        <pt x="381" y="74" on="0"/>
        <pt x="248" y="23" on="0"/>
        <pt x="105" y="-2" on="0"/>
      </contour>
    </TTGlyph>
    <TTGlyph name="glyph00046" xMin="-5" yMin="-37" xMax="814" yMax="441">
      <contour>
        <pt x="17" y="-37" on="1"/>
        <pt x="-5" y="-37" on="0"/>
        <pt x="-5" y="-18" on="1"/>
        <pt x="-5" y="-10" on="0"/>
        <pt x="29" y="56" on="0"/>
        <pt x="89" y="146" on="0"/>
        <pt x="167" y="238" on="0"/>
        <pt x="211" y="271" on="1"/>
        <pt x="293" y="333" on="0"/>
        <pt x="375" y="333" on="1"/>
        <pt x="412" y="333" on="0"/>
        <pt x="443" y="315" on="1"/>
        <pt x="475" y="297" on="0"/>
        <pt x="505" y="297" on="1"/>
        <pt x="538" y="297" on="0"/>
        <pt x="588" y="331" on="0"/>
        <pt x="610" y="363" on="1"/>
        <pt x="626" y="366" on="1"/>
        <pt x="646" y="351" on="0"/>
        <pt x="671" y="340" on="0"/>
        <pt x="686" y="340" on="1"/>
        <pt x="718" y="340" on="0"/>
        <pt x="761" y="392" on="0"/>
        <pt x="779" y="441" on="1"/>
        <pt x="814" y="437" on="1"/>
        <pt x="787" y="301" on="0"/>
        <pt x="703" y="169" on="0"/>
        <pt x="642" y="169" on="1"/>
        <pt x="623" y="169" on="0"/>
        <pt x="590" y="180" on="0"/>
        <pt x="576" y="190" on="1"/>
        <pt x="555" y="157" on="0"/>
        <pt x="501" y="118" on="0"/>
        <pt x="466" y="118" on="1"/>
        <pt x="447" y="118" on="0"/>
        <pt x="403" y="134" on="0"/>
        <pt x="378" y="148" on="1"/>
        <pt x="328" y="177" on="0"/>
        <pt x="289" y="177" on="1"/>
        <pt x="248" y="177" on="0"/>
        <pt x="197" y="154" on="1"/>
        <pt x="162" y="138" on="0"/>
        <pt x="101" y="75" on="0"/>
        <pt x="59" y="10" on="0"/>
        <pt x="52" y="-8" on="1"/>
        <pt x="41" y="-37" on="0"/>
      </contour>
    </TTGlyph>
    <TTGlyph name="glyph00047" xMin="-40" yMin="0" xMax="737" yMax="483">
      <contour>
        <pt x="0" y="0" on="1"/>
        <pt x="-21" y="0" on="0"/>
        <pt x="-40" y="50" on="0"/>
        <pt x="-40" y="80" on="1"/>
        <pt x="-40" y="136" on="0"/>
        <pt x="4" y="190" on="0"/>
        <pt x="34" y="190" on="1"/>
        <pt x="142" y="190" on="0"/>
        <pt x="212" y="300" on="1"/>
        <pt x="235" y="336" on="1"/>
        <pt x="246" y="354" on="0"/>
        <pt x="264" y="368" on="0"/>
        <pt x="278" y="368" on="1"/>
        <pt x="291" y="368" on="0"/>
        <pt x="315" y="356" on="1"/>
        <pt x="339" y="344" on="0"/>
        <pt x="369" y="344" on="1"/>
        <pt x="402" y="344" on="0"/>
        <pt x="447" y="387" on="0"/>
        <pt x="466" y="424" on="1"/>
        <pt x="489" y="428" on="1"/>
        <pt x="500" y="413" on="0"/>
        <pt x="525" y="398" on="0"/>
        <pt x="544" y="398" on="1"/>
        <pt x="578" y="398" on="0"/>
        <pt x="621" y="447" on="0"/>
        <pt x="626" y="481" on="1"/>
        <pt x="652" y="483" on="1"/>
        <pt x="656" y="476" on="0"/>
        <pt x="657" y="469" on="1"/>
        <pt x="671" y="458" on="0"/>
        <pt x="697" y="458" on="1"/>
        <pt x="719" y="458" on="0"/>
        <pt x="737" y="413" on="0"/>
        <pt x="737" y="378" on="1"/>
        <pt x="737" y="323" on="0"/>
        <pt x="694" y="268" on="0"/>
        <pt x="663" y="268" on="1"/>
        <pt x="649" y="268" on="0"/>
        <pt x="622" y="277" on="0"/>
        <pt x="605" y="287" on="1"/>
        <pt x="581" y="244" on="0"/>
        <pt x="525" y="216" on="0"/>
        <pt x="502" y="216" on="1"/>
        <pt x="471" y="216" on="0"/>
        <pt x="438" y="241" on="1"/>
        <pt x="410" y="197" on="0"/>
        <pt x="347" y="167" on="0"/>
        <pt x="321" y="167" on="1"/>
        <pt x="305" y="167" on="0"/>
        <pt x="277" y="177" on="0"/>
        <pt x="263" y="185" on="1"/>
        <pt x="235" y="202" on="0"/>
        <pt x="225" y="202" on="1"/>
        <pt x="209" y="202" on="0"/>
        <pt x="182" y="149" on="1"/>
        <pt x="169" y="123" on="0"/>
        <pt x="133" y="72" on="0"/>
        <pt x="110" y="48" on="1"/>
        <pt x="64" y="0" on="0"/>
      </contour>
    </TTGlyph>
    <TTGlyph name="glyph00048" xMin="-45" yMin="-3" xMax="1134" yMax="489">
      <contour>
        <pt x="66" y="-3" on="1"/>
        <pt x="11" y="-3" on="0"/>
        <pt x="-45" y="6" on="0"/>
        <pt x="-45" y="24" on="1"/>
        <pt x="-45" y="44" on="0"/>
        <pt x="-8" y="56" on="0"/>
        <pt x="34" y="56" on="1"/>
        <pt x="155" y="56" on="0"/>
        <pt x="366" y="117" on="0"/>
        <pt x="445" y="166" on="1"/>
        <pt x="485" y="191" on="0"/>
        <pt x="555" y="254" on="0"/>
        <pt x="586" y="291" on="1"/>
        <pt x="618" y="329" on="0"/>
        <pt x="655" y="373" on="0"/>
        <pt x="674" y="373" on="1"/>
        <pt x="682" y="373" on="0"/>
        <pt x="703" y="368" on="0"/>
        <pt x="715" y="362" on="1"/>
        <pt x="739" y="350" on="0"/>
        <pt x="766" y="350" on="1"/>
        <pt x="799" y="350" on="0"/>
        <pt x="844" y="393" on="0"/>
        <pt x="863" y="430" on="1"/>
        <pt x="886" y="434" on="1"/>
        <pt x="897" y="419" on="0"/>
        <pt x="922" y="404" on="0"/>
        <pt x="941" y="404" on="1"/>
        <pt x="975" y="404" on="0"/>
        <pt x="1018" y="453" on="0"/>
        <pt x="1023" y="487" on="1"/>
        <pt x="1049" y="489" on="1"/>
        <pt x="1053" y="482" on="0"/>
        <pt x="1054" y="475" on="1"/>
        <pt x="1068" y="464" on="0"/>
        <pt x="1094" y="464" on="1"/>
        <pt x="1116" y="464" on="0"/>
        <pt x="1134" y="419" on="0"/>
        <pt x="1134" y="384" on="1"/>
        <pt x="1134" y="329" on="0"/>
        <pt x="1091" y="274" on="0"/>
        <pt x="1060" y="274" on="1"/>
        <pt x="1046" y="274" on="0"/>
        <pt x="1019" y="283" on="0"/>
        <pt x="1002" y="293" on="1"/>
        <pt x="978" y="250" on="0"/>
        <pt x="922" y="222" on="0"/>
        <pt x="899" y="222" on="1"/>
        <pt x="868" y="222" on="0"/>
        <pt x="835" y="247" on="1"/>
        <pt x="812" y="210" on="0"/>
        <pt x="754" y="169" on="0"/>
        <pt x="722" y="169" on="1"/>
        <pt x="684" y="169" on="0"/>
        <pt x="656" y="189" on="1"/>
        <pt x="630" y="208" on="0"/>
        <pt x="615" y="208" on="1"/>
        <pt x="608" y="208" on="0"/>
        <pt x="594" y="202" on="0"/>
        <pt x="555" y="172" on="0"/>
        <pt x="508" y="136" on="1"/>
        <pt x="487" y="120" on="0"/>
        <pt x="407" y="74" on="0"/>
        <pt x="293" y="28" on="0"/>
        <pt x="150" y="-3" on="0"/>
      </contour>
    </TTGlyph>
    <TTGlyph name="glyph00049" xMin="-63" yMin="-100" xMax="665" yMax="386">
      <contour>
        <pt x="84" y="-100" on="1"/>
        <pt x="49" y="-100" on="0"/>
        <pt x="-19" y="-86" on="0"/>
        <pt x="-63" y="-54" on="0"/>
        <pt x="-63" y="-28" on="1"/>
        <pt x="-63" y="-9" on="0"/>
        <pt x="-49" y="37" on="0"/>
        <pt x="-40" y="57" on="1"/>
        <pt x="10" y="169" on="0"/>
        <pt x="122" y="283" on="0"/>
        <pt x="169" y="283" on="1"/>
        <pt x="210" y="283" on="0"/>
        <pt x="237" y="265" on="1"/>
        <pt x="264" y="247" on="0"/>
        <pt x="297" y="247" on="1"/>
        <pt x="330" y="247" on="0"/>
        <pt x="375" y="290" on="0"/>
        <pt x="394" y="327" on="1"/>
        <pt x="417" y="331" on="1"/>
        <pt x="428" y="316" on="0"/>
        <pt x="453" y="301" on="0"/>
        <pt x="472" y="301" on="1"/>
        <pt x="506" y="301" on="0"/>
        <pt x="549" y="350" on="0"/>
        <pt x="554" y="384" on="1"/>
        <pt x="580" y="386" on="1"/>
        <pt x="584" y="379" on="0"/>
        <pt x="585" y="372" on="1"/>
        <pt x="599" y="361" on="0"/>
        <pt x="625" y="361" on="1"/>
        <pt x="647" y="361" on="0"/>
        <pt x="665" y="316" on="0"/>
        <pt x="665" y="281" on="1"/>
        <pt x="665" y="226" on="0"/>
        <pt x="622" y="171" on="0"/>
        <pt x="591" y="171" on="1"/>
        <pt x="577" y="171" on="0"/>
        <pt x="550" y="180" on="0"/>
        <pt x="533" y="190" on="1"/>
        <pt x="509" y="147" on="0"/>
        <pt x="453" y="119" on="0"/>
        <pt x="430" y="119" on="1"/>
        <pt x="399" y="119" on="0"/>
        <pt x="366" y="144" on="1"/>
        <pt x="343" y="103" on="0"/>
        <pt x="286" y="68" on="0"/>
        <pt x="253" y="68" on="1"/>
        <pt x="205" y="68" on="0"/>
        <pt x="170" y="99" on="1"/>
        <pt x="135" y="130" on="0"/>
        <pt x="101" y="130" on="1"/>
        <pt x="66" y="130" on="0"/>
        <pt x="17" y="78" on="0"/>
        <pt x="17" y="44" on="1"/>
        <pt x="17" y="14" on="0"/>
        <pt x="81" y="-11" on="1"/>
        <pt x="144" y="-36" on="0"/>
        <pt x="144" y="-75" on="1"/>
        <pt x="144" y="-88" on="0"/>
        <pt x="107" y="-100" on="0"/>
      </contour>
    </TTGlyph>
    <TTGlyph name="glyph00050" xMin="-40" yMin="0" xMax="502" yMax="398">
      <contour>
        <pt x="0" y="0" on="1"/>
        <pt x="-19" y="0" on="0"/>
        <pt x="-30" y="21" on="1"/>
        <pt x="-40" y="40" on="0"/>
        <pt x="-40" y="80" on="1"/>
        <pt x="-40" y="136" on="0"/>
        <pt x="4" y="190" on="0"/>
        <pt x="34" y="190" on="1"/>
        <pt x="107" y="190" on="0"/>
        <pt x="147" y="220" on="1"/>
        <pt x="186" y="250" on="0"/>
        <pt x="236" y="324" on="1"/>
        <pt x="286" y="398" on="0"/>
        <pt x="358" y="398" on="1"/>
        <pt x="385" y="398" on="0"/>
        <pt x="452" y="378" on="0"/>
        <pt x="502" y="345" on="0"/>
        <pt x="502" y="323" on="1"/>
        <pt x="502" y="302" on="0"/>
        <pt x="482" y="252" on="0"/>
        <pt x="448" y="206" on="0"/>
        <pt x="406" y="177" on="0"/>
        <pt x="385" y="177" on="1"/>
        <pt x="361" y="177" on="0"/>
        <pt x="323" y="197" on="1"/>
        <pt x="286" y="216" on="0"/>
        <pt x="263" y="216" on="1"/>
        <pt x="214" y="216" on="0"/>
        <pt x="178" y="155" on="1"/>
        <pt x="160" y="124" on="0"/>
        <pt x="122" y="70" on="0"/>
        <pt x="102" y="47" on="1"/>
        <pt x="61" y="0" on="0"/>
      </contour>
    </TTGlyph>
    <TTGlyph name="glyph00051" xMin="-45" yMin="-3" xMax="933" yMax="471">
      <contour>
        <pt x="36" y="-3" on="1"/>
        <pt x="-13" y="-3" on="0"/>
        <pt x="-45" y="14" on="0"/>
        <pt x="-45" y="24" on="1"/>
        <pt x="-45" y="39" on="0"/>
        <pt x="-21" y="56" on="0"/>
        <pt x="14" y="56" on="1"/>
        <pt x="246" y="56" on="0"/>
        <pt x="397" y="156" on="1"/>
        <pt x="548" y="257" on="0"/>
        <pt x="615" y="361" on="1"/>
        <pt x="683" y="465" on="0"/>
        <pt x="767" y="465" on="1"/>
        <pt x="776" y="465" on="0"/>
        <pt x="780" y="468" on="1"/>
        <pt x="785" y="471" on="0"/>
        <pt x="789" y="471" on="1"/>
        <pt x="807" y="471" on="0"/>
        <pt x="856" y="460" on="0"/>
        <pt x="902" y="439" on="0"/>
        <pt x="933" y="412" on="0"/>
        <pt x="933" y="396" on="1"/>
        <pt x="933" y="367" on="0"/>
        <pt x="901" y="302" on="0"/>
        <pt x="852" y="258" on="0"/>
        <pt x="824" y="258" on="1"/>
        <pt x="793" y="258" on="0"/>
        <pt x="758" y="279" on="1"/>
        <pt x="724" y="300" on="0"/>
        <pt x="689" y="300" on="1"/>
        <pt x="645" y="300" on="0"/>
        <pt x="558" y="210" on="1"/>
        <pt x="470" y="119" on="0"/>
        <pt x="336" y="58" on="1"/>
        <pt x="202" y="-3" on="0"/>
      </contour>
    </TTGlyph>
    <TTGlyph name="glyph00052" xMin="-63" yMin="-100" xMax="348" yMax="300">
      <contour>
        <pt x="84" y="-100" on="1"/>
        <pt x="49" y="-100" on="0"/>
        <pt x="-19" y="-86" on="0"/>
        <pt x="-63" y="-54" on="0"/>
        <pt x="-63" y="-28" on="1"/>
        <pt x="-63" y="-8" on="0"/>
        <pt x="-47" y="49" on="0"/>
        <pt x="-19" y="99" on="1"/>
        <pt x="25" y="179" on="0"/>
        <pt x="127" y="284" on="0"/>
        <pt x="184" y="284" on="1"/>
        <pt x="188" y="284" on="1"/>
        <pt x="195" y="300" on="0"/>
        <pt x="204" y="300" on="1"/>
        <pt x="222" y="300" on="0"/>
        <pt x="271" y="289" on="0"/>
        <pt x="317" y="268" on="0"/>
        <pt x="348" y="241" on="0"/>
        <pt x="348" y="225" on="1"/>
        <pt x="348" y="181" on="0"/>
        <pt x="310" y="131" on="1"/>
        <pt x="272" y="81" on="0"/>
        <pt x="234" y="81" on="1"/>
        <pt x="212" y="81" on="0"/>
        <pt x="171" y="104" on="1"/>
        <pt x="130" y="126" on="0"/>
        <pt x="99" y="126" on="1"/>
        <pt x="64" y="126" on="0"/>
        <pt x="41" y="97" on="1"/>
        <pt x="17" y="67" on="0"/>
        <pt x="17" y="45" on="1"/>
        <pt x="17" y="17" on="0"/>
        <pt x="81" y="-8" on="1"/>
        <pt x="144" y="-33" on="0"/>
        <pt x="144" y="-75" on="1"/>
        <pt x="144" y="-88" on="0"/>
        <pt x="107" y="-100" on="0"/>
      </contour>
    </TTGlyph>
    <TTGlyph name="glyph00053" xMin="-5" yMin="-37" xMax="481" yMax="335">
      <contour>
        <pt x="17" y="-37" on="1"/>
        <pt x="-5" y="-37" on="0"/>
        <pt x="-5" y="-18" on="1"/>
        <pt x="-5" y="2" on="0"/>
        <pt x="62" y="105" on="1"/>
        <pt x="130" y="210" on="0"/>
        <pt x="197" y="269" on="1"/>
        <pt x="265" y="329" on="0"/>
        <pt x="317" y="329" on="1"/>
        <pt x="321" y="329" on="1"/>
        <pt x="329" y="335" on="0"/>
        <pt x="337" y="335" on="1"/>
        <pt x="355" y="335" on="0"/>
        <pt x="404" y="324" on="0"/>
        <pt x="450" y="303" on="0"/>
        <pt x="481" y="276" on="0"/>
        <pt x="481" y="260" on="1"/>
        <pt x="481" y="218" on="0"/>
        <pt x="446" y="166" on="1"/>
        <pt x="412" y="114" on="0"/>
        <pt x="376" y="114" on="1"/>
        <pt x="364" y="114" on="0"/>
        <pt x="334" y="125" on="0"/>
        <pt x="315" y="135" on="1"/>
        <pt x="277" y="155" on="0"/>
        <pt x="241" y="155" on="1"/>
        <pt x="195" y="155" on="0"/>
        <pt x="118" y="106" on="0"/>
        <pt x="89" y="62" on="1"/>
        <pt x="75" y="40" on="0"/>
        <pt x="56" y="5" on="0"/>
        <pt x="51" y="-9" on="1"/>
        <pt x="41" y="-37" on="0"/>
      </contour>
    </TTGlyph>
    <TTGlyph name="glyph00054" xMin="-40" yMin="0" xMax="757" yMax="457">
      <contour>
        <pt x="0" y="0" on="1"/>
        <pt x="-22" y="0" on="0"/>
        <pt x="-40" y="50" on="0"/>
        <pt x="-40" y="78" on="1"/>
        <pt x="-40" y="118" on="0"/>
        <pt x="4" y="182" on="0"/>
        <pt x="72" y="220" on="0"/>
        <pt x="107" y="220" on="1"/>
        <pt x="195" y="220" on="0"/>
        <pt x="232" y="281" on="1"/>
        <pt x="270" y="341" on="0"/>
        <pt x="297" y="341" on="1"/>
        <pt x="305" y="341" on="0"/>
        <pt x="326" y="336" on="0"/>
        <pt x="338" y="330" on="1"/>
        <pt x="362" y="318" on="0"/>
        <pt x="389" y="318" on="1"/>
        <pt x="422" y="318" on="0"/>
        <pt x="467" y="361" on="0"/>
        <pt x="486" y="398" on="1"/>
        <pt x="509" y="402" on="1"/>
        <pt x="520" y="387" on="0"/>
        <pt x="545" y="372" on="0"/>
        <pt x="564" y="372" on="1"/>
        <pt x="598" y="372" on="0"/>
        <pt x="641" y="421" on="0"/>
        <pt x="646" y="455" on="1"/>
        <pt x="672" y="457" on="1"/>
        <pt x="676" y="450" on="0"/>
        <pt x="677" y="443" on="1"/>
        <pt x="691" y="432" on="0"/>
        <pt x="717" y="432" on="1"/>
        <pt x="739" y="432" on="0"/>
        <pt x="757" y="387" on="0"/>
        <pt x="757" y="352" on="1"/>
        <pt x="757" y="297" on="0"/>
        <pt x="714" y="242" on="0"/>
        <pt x="683" y="242" on="1"/>
        <pt x="669" y="242" on="0"/>
        <pt x="642" y="251" on="0"/>
        <pt x="625" y="261" on="1"/>
        <pt x="601" y="218" on="0"/>
        <pt x="545" y="190" on="0"/>
        <pt x="522" y="190" on="1"/>
        <pt x="491" y="190" on="0"/>
        <pt x="458" y="215" on="1"/>
        <pt x="435" y="178" on="0"/>
        <pt x="377" y="137" on="0"/>
        <pt x="345" y="137" on="1"/>
        <pt x="323" y="137" on="0"/>
        <pt x="292" y="149" on="0"/>
        <pt x="269" y="163" on="1"/>
        <pt x="250" y="175" on="0"/>
        <pt x="241" y="181" on="0"/>
        <pt x="233" y="181" on="1"/>
        <pt x="218" y="181" on="0"/>
        <pt x="187" y="129" on="1"/>
        <pt x="171" y="103" on="0"/>
        <pt x="135" y="57" on="0"/>
        <pt x="113" y="38" on="1"/>
        <pt x="69" y="0" on="0"/>
      </contour>
    </TTGlyph>
    <TTGlyph name="glyph00055" xMin="-40" yMin="0" xMax="578" yMax="449">
      <contour>
        <pt x="0" y="0" on="1"/>
        <pt x="-16" y="0" on="0"/>
        <pt x="-40" y="39" on="0"/>
        <pt x="-40" y="78" on="1"/>
        <pt x="-40" y="118" on="0"/>
        <pt x="4" y="182" on="0"/>
        <pt x="72" y="220" on="0"/>
        <pt x="107" y="220" on="1"/>
        <pt x="195" y="220" on="0"/>
        <pt x="235" y="263" on="1"/>
        <pt x="276" y="305" on="0"/>
        <pt x="322" y="377" on="1"/>
        <pt x="369" y="449" on="0"/>
        <pt x="434" y="449" on="1"/>
        <pt x="461" y="449" on="0"/>
        <pt x="528" y="429" on="0"/>
        <pt x="578" y="396" on="0"/>
        <pt x="578" y="374" on="1"/>
        <pt x="578" y="332" on="0"/>
        <pt x="540" y="280" on="1"/>
        <pt x="501" y="228" on="0"/>
        <pt x="461" y="228" on="1"/>
        <pt x="437" y="228" on="0"/>
        <pt x="399" y="248" on="1"/>
        <pt x="362" y="267" on="0"/>
        <pt x="339" y="267" on="1"/>
        <pt x="293" y="267" on="0"/>
        <pt x="231" y="171" on="1"/>
        <pt x="200" y="122" on="0"/>
        <pt x="143" y="56" on="0"/>
        <pt x="118" y="37" on="1"/>
        <pt x="68" y="0" on="0"/>
      </contour>
    </TTGlyph>
    <TTGlyph name="glyph00056" xMin="-45" yMin="0" xMax="501" yMax="404">
      <contour>
        <pt x="0" y="0" on="1"/>
        <pt x="-19" y="0" on="0"/>
        <pt x="-45" y="46" on="0"/>
        <pt x="-45" y="101" on="1"/>
        <pt x="-45" y="166" on="0"/>
        <pt x="7" y="228" on="0"/>
        <pt x="49" y="228" on="1"/>
        <pt x="114" y="228" on="0"/>
        <pt x="200" y="274" on="0"/>
        <pt x="230" y="312" on="1"/>
        <pt x="242" y="327" on="1"/>
        <pt x="276" y="370" on="0"/>
        <pt x="331" y="404" on="0"/>
        <pt x="357" y="404" on="1"/>
        <pt x="384" y="404" on="0"/>
        <pt x="451" y="384" on="0"/>
        <pt x="501" y="351" on="0"/>
        <pt x="501" y="329" on="1"/>
        <pt x="501" y="308" on="0"/>
        <pt x="481" y="258" on="0"/>
        <pt x="447" y="212" on="0"/>
        <pt x="405" y="183" on="0"/>
        <pt x="384" y="183" on="1"/>
        <pt x="371" y="183" on="0"/>
        <pt x="340" y="195" on="0"/>
        <pt x="321" y="205" on="1"/>
        <pt x="284" y="226" on="0"/>
        <pt x="257" y="226" on="1"/>
        <pt x="233" y="226" on="0"/>
        <pt x="201" y="192" on="0"/>
        <pt x="175" y="148" on="1"/>
        <pt x="156" y="116" on="1"/>
        <pt x="119" y="55" on="0"/>
        <pt x="50" y="0" on="0"/>
      </contour>
    </TTGlyph>
    <TTGlyph name="glyph00057" xMin="-45" yMin="0" xMax="720" yMax="465">
      <contour>
        <pt x="0" y="0" on="1"/>
        <pt x="-19" y="0" on="0"/>
        <pt x="-45" y="46" on="0"/>
        <pt x="-45" y="101" on="1"/>
        <pt x="-45" y="166" on="0"/>
        <pt x="7" y="228" on="0"/>
        <pt x="49" y="228" on="1"/>
        <pt x="103" y="228" on="0"/>
        <pt x="177" y="260" on="0"/>
        <pt x="205" y="309" on="1"/>
        <pt x="228" y="348" on="0"/>
        <pt x="259" y="348" on="1"/>
        <pt x="278" y="348" on="0"/>
        <pt x="302" y="337" on="1"/>
        <pt x="326" y="326" on="0"/>
        <pt x="352" y="326" on="1"/>
        <pt x="388" y="326" on="0"/>
        <pt x="410" y="350" on="1"/>
        <pt x="432" y="373" on="0"/>
        <pt x="449" y="406" on="1"/>
        <pt x="472" y="409" on="1"/>
        <pt x="490" y="380" on="0"/>
        <pt x="527" y="380" on="1"/>
        <pt x="561" y="380" on="0"/>
        <pt x="604" y="429" on="0"/>
        <pt x="609" y="463" on="1"/>
        <pt x="635" y="465" on="1"/>
        <pt x="639" y="458" on="0"/>
        <pt x="640" y="451" on="1"/>
        <pt x="654" y="440" on="0"/>
        <pt x="680" y="440" on="1"/>
        <pt x="702" y="440" on="0"/>
        <pt x="720" y="395" on="0"/>
        <pt x="720" y="360" on="1"/>
        <pt x="720" y="305" on="0"/>
        <pt x="677" y="250" on="0"/>
        <pt x="646" y="250" on="1"/>
        <pt x="632" y="250" on="0"/>
        <pt x="605" y="259" on="0"/>
        <pt x="588" y="269" on="1"/>
        <pt x="565" y="226" on="0"/>
        <pt x="510" y="198" on="0"/>
        <pt x="485" y="198" on="1"/>
        <pt x="454" y="198" on="0"/>
        <pt x="421" y="223" on="1"/>
        <pt x="396" y="180" on="0"/>
        <pt x="334" y="143" on="0"/>
        <pt x="306" y="143" on="1"/>
        <pt x="268" y="143" on="0"/>
        <pt x="239" y="165" on="1"/>
        <pt x="208" y="187" on="0"/>
        <pt x="197" y="187" on="1"/>
        <pt x="180" y="187" on="0"/>
        <pt x="133" y="94" on="1"/>
        <pt x="87" y="0" on="0"/>
      </contour>
    </TTGlyph>
    <TTGlyph name="uni0621" xMin="56" yMin="12" xMax="543" yMax="585">
      <contour>
        <pt x="72" y="12" on="1"/>
        <pt x="56" y="22" on="1"/>
        <pt x="63" y="42" on="0"/>
        <pt x="83" y="84" on="0"/>
        <pt x="95" y="106" on="1"/>
        <pt x="120" y="151" on="0"/>
        <pt x="169" y="191" on="1"/>
        <pt x="131" y="201" on="0"/>
        <pt x="87" y="241" on="0"/>
        <pt x="70" y="290" on="0"/>
        <pt x="70" y="313" on="1"/>
        <pt x="70" y="402" on="0"/>
        <pt x="171" y="494" on="1"/>
        <pt x="271" y="585" on="0"/>
        <pt x="356" y="585" on="1"/>
        <pt x="387" y="585" on="0"/>
        <pt x="439" y="554" on="0"/>
        <pt x="439" y="523" on="1"/>
        <pt x="439" y="499" on="0"/>
        <pt x="416" y="461" on="0"/>
        <pt x="392" y="452" on="1"/>
        <pt x="385" y="452" on="1"/>
        <pt x="375" y="465" on="0"/>
        <pt x="329" y="495" on="0"/>
        <pt x="299" y="495" on="1"/>
        <pt x="259" y="495" on="0"/>
        <pt x="204" y="454" on="0"/>
        <pt x="204" y="419" on="1"/>
        <pt x="204" y="387" on="0"/>
        <pt x="244" y="345" on="0"/>
        <pt x="303" y="325" on="0"/>
        <pt x="330" y="325" on="1"/>
        <pt x="350" y="325" on="0"/>
        <pt x="380" y="330" on="0"/>
        <pt x="402" y="346" on="1"/>
        <pt x="437" y="370" on="0"/>
        <pt x="463" y="388" on="0"/>
        <pt x="474" y="396" on="0"/>
        <pt x="483" y="403" on="1"/>
        <pt x="528" y="437" on="1"/>
        <pt x="543" y="426" on="1"/>
        <pt x="539" y="415" on="0"/>
        <pt x="527" y="385" on="0"/>
        <pt x="516" y="366" on="1"/>
        <pt x="495" y="329" on="0"/>
        <pt x="449" y="296" on="1"/>
        <pt x="245" y="156" on="1"/>
        <pt x="198" y="124" on="0"/>
        <pt x="111" y="54" on="0"/>
      </contour>
    </TTGlyph>
    <TTGlyph name="uni0627" xMin="91" yMin="101" xMax="236" yMax="958">
      <contour>
        <pt x="117" y="101" on="1"/>
        <pt x="91" y="107" on="1"/>
        <pt x="95" y="126" on="0"/>
        <pt x="109" y="233" on="0"/>
        <pt x="113" y="334" on="1"/>
        <pt x="126" y="621" on="1"/>
        <pt x="129" y="677" on="0"/>
        <pt x="138" y="759" on="0"/>
        <pt x="156" y="831" on="0"/>
        <pt x="187" y="908" on="0"/>
        <pt x="211" y="958" on="1"/>
        <pt x="236" y="950" on="1"/>
        <pt x="229" y="927" on="0"/>
        <pt x="213" y="826" on="0"/>
        <pt x="208" y="730" on="1"/>
        <pt x="192" y="433" on="1"/>
        <pt x="188" y="347" on="0"/>
        <pt x="149" y="175" on="0"/>
      </contour>
    </TTGlyph>
    <TTGlyph name="uni0633" xMin="18" yMin="-371" xMax="1174" yMax="639">
      <contour>
        <pt x="280" y="-371" on="1"/>
        <pt x="160" y="-371" on="0"/>
        <pt x="18" y="-222" on="0"/>
        <pt x="18" y="-83" on="1"/>
        <pt x="18" y="-37" on="0"/>
        <pt x="31" y="59" on="0"/>
        <pt x="42" y="110" on="1"/>
        <pt x="53" y="161" on="0"/>
        <pt x="94" y="266" on="0"/>
        <pt x="122" y="321" on="1"/>
        <pt x="156" y="310" on="1"/>
        <pt x="127" y="240" on="0"/>
        <pt x="102" y="129" on="0"/>
        <pt x="102" y="75" on="1"/>
        <pt x="102" y="-1" on="0"/>
        <pt x="160" y="-94" on="0"/>
        <pt x="267" y="-136" on="0"/>
        <pt x="338" y="-136" on="1"/>
        <pt x="433" y="-136" on="0"/>
        <pt x="565" y="-70" on="0"/>
        <pt x="648" y="31" on="0"/>
        <pt x="667" y="85" on="1"/>
        <pt x="685" y="135" on="0"/>
        <pt x="706" y="245" on="0"/>
        <pt x="707" y="303" on="1"/>
        <pt x="712" y="471" on="1"/>
        <pt x="737" y="477" on="1"/>
        <pt x="757" y="470" on="0"/>
        <pt x="785" y="464" on="0"/>
        <pt x="804" y="464" on="1"/>
        <pt x="854" y="464" on="0"/>
        <pt x="937" y="514" on="0"/>
        <pt x="965" y="555" on="1"/>
        <pt x="980" y="558" on="1"/>
        <pt x="1003" y="545" on="0"/>
        <pt x="1029" y="536" on="0"/>
        <pt x="1045" y="536" on="1"/>
        <pt x="1083" y="536" on="0"/>
        <pt x="1129" y="587" on="0"/>
        <pt x="1141" y="639" on="1"/>
        <pt x="1174" y="635" on="1"/>
        <pt x="1154" y="502" on="0"/>
        <pt x="1058" y="369" on="0"/>
        <pt x="988" y="369" on="1"/>
        <pt x="978" y="369" on="0"/>
        <pt x="949" y="373" on="0"/>
        <pt x="935" y="378" on="1"/>
        <pt x="901" y="332" on="0"/>
        <pt x="810" y="285" on="0"/>
        <pt x="761" y="283" on="1"/>
        <pt x="755" y="134" on="0"/>
        <pt x="703" y="-26" on="1"/>
        <pt x="651" y="-188" on="0"/>
        <pt x="542" y="-280" on="1"/>
        <pt x="435" y="-371" on="0"/>
      </contour>
    </TTGlyph>
    <TTGlyph name="uni0644" xMin="18" yMin="-371" xMax="847" yMax="1126">
      <contour>
        <pt x="287" y="-371" on="1"/>
        <pt x="207" y="-371" on="0"/>
        <pt x="103" y="-322" on="0"/>
        <pt x="43" y="-242" on="0"/>
        <pt x="18" y="-143" on="0"/>
        <pt x="18" y="-94" on="1"/>
        <pt x="18" y="-41" on="0"/>
        <pt x="34" y="65" on="0"/>
        <pt x="48" y="117" on="1"/>
        <pt x="62" y="169" on="0"/>
        <pt x="104" y="271" on="0"/>
        <pt x="131" y="322" on="1"/>
        <pt x="164" y="310" on="1"/>
        <pt x="139" y="253" on="0"/>
        <pt x="106" y="132" on="0"/>
        <pt x="106" y="67" on="1"/>
        <pt x="106" y="-12" on="0"/>
        <pt x="169" y="-101" on="0"/>
        <pt x="275" y="-136" on="0"/>
        <pt x="337" y="-136" on="1"/>
        <pt x="428" y="-136" on="0"/>
        <pt x="559" y="-84" on="0"/>
        <pt x="643" y="-6" on="0"/>
        <pt x="665" y="32" on="1"/>
        <pt x="708" y="107" on="0"/>
        <pt x="716" y="295" on="1"/>
        <pt x="737" y="775" on="1"/>
        <pt x="737" y="779" on="0"/>
        <pt x="738" y="792" on="0"/>
        <pt x="742" y="832" on="0"/>
        <pt x="745" y="874" on="1"/>
        <pt x="748" y="909" on="0"/>
        <pt x="779" y="1025" on="0"/>
        <pt x="820" y="1126" on="1"/>
        <pt x="847" y="1120" on="1"/>
        <pt x="839" y="1091" on="0"/>
        <pt x="819" y="922" on="0"/>
        <pt x="814" y="776" on="1"/>
        <pt x="812" y="707" on="0"/>
        <pt x="809" y="618" on="0"/>
        <pt x="806" y="552" on="0"/>
        <pt x="801" y="486" on="0"/>
        <pt x="798" y="440" on="1"/>
        <pt x="790" y="334" on="0"/>
        <pt x="771" y="185" on="0"/>
        <pt x="745" y="75" on="0"/>
        <pt x="710" y="-19" on="0"/>
        <pt x="687" y="-72" on="1"/>
        <pt x="626" y="-211" on="0"/>
        <pt x="523" y="-291" on="1"/>
        <pt x="420" y="-371" on="0"/>
      </contour>
    </TTGlyph>
    <TTGlyph name="uni0645" xMin="18" yMin="-668" xMax="686" yMax="661">
      <contour>
        <pt x="22" y="-668" on="1"/>
        <pt x="20" y="-607" on="1"/>
        <pt x="20" y="-599" on="0"/>
        <pt x="19" y="-575" on="0"/>
        <pt x="18" y="-530" on="0"/>
        <pt x="18" y="-452" on="0"/>
        <pt x="18" y="-389" on="1"/>
        <pt x="18" y="-55" on="0"/>
        <pt x="58" y="83" on="1"/>
        <pt x="99" y="224" on="0"/>
        <pt x="164" y="314" on="1"/>
        <pt x="230" y="406" on="0"/>
        <pt x="389" y="473" on="1"/>
        <pt x="391" y="478" on="0"/>
        <pt x="395" y="490" on="0"/>
        <pt x="399" y="498" on="1"/>
        <pt x="430" y="565" on="1"/>
        <pt x="456" y="621" on="0"/>
        <pt x="506" y="661" on="0"/>
        <pt x="527" y="661" on="1"/>
        <pt x="544" y="661" on="0"/>
        <pt x="596" y="651" on="0"/>
        <pt x="650" y="631" on="0"/>
        <pt x="686" y="601" on="0"/>
        <pt x="686" y="581" on="1"/>
        <pt x="686" y="535" on="0"/>
        <pt x="637" y="441" on="1"/>
        <pt x="588" y="347" on="0"/>
        <pt x="531" y="338" on="1"/>
        <pt x="502" y="334" on="0"/>
        <pt x="421" y="316" on="0"/>
        <pt x="368" y="302" on="1"/>
        <pt x="260" y="273" on="0"/>
        <pt x="197" y="219" on="1"/>
        <pt x="132" y="163" on="0"/>
        <pt x="114" y="69" on="1"/>
        <pt x="105" y="21" on="0"/>
        <pt x="91" y="-92" on="0"/>
        <pt x="87" y="-157" on="1"/>
        <pt x="64" y="-568" on="1"/>
        <pt x="63" y="-599" on="0"/>
        <pt x="59" y="-648" on="0"/>
        <pt x="57" y="-668" on="1"/>
      </contour>
    </TTGlyph>
</ttFont>
